CoelacanthItalicPearl.sfdir
StartChar: two
Encoding: 50 50 65
Width: 623
Flags: HW
LayerCount: 2
Fore
SplineSet
169.52734375 386.836914062 m 1
 215.73828125 431.685546875 302.782226562 515.731445312 399.296875 515.731445312 c 1
 505.260742188 515.731445312 535.618164062 426.194335938 521.02734375 357.551757812 c 0
 491.69921875 219.575195312 248.72265625 117.96484375 217.788085938 77.86328125 c 1
 344.678710938 87.6884765625 418.231445312 75.6181640625 431.717773438 82.6318359375 c 1
 478.07421875 100.915039062 509.908203125 141.532226562 534.50390625 166.438476562 c 1
 583.895507812 121.48828125 l 1
 583.895507812 121.48828125 527.568359375 80.9580078125 491.653320312 -11.912109375 c 1
 480.84765625 -1.2373046875 359.75 0.9921875 334.309570312 0.9921875 c 1
 255.163085938 0.9921875 135.40234375 3.7666015625 106.3828125 -6.544921875 c 1
 93.32421875 57.76171875 l 1
 172.543945312 127.662109375 400.908203125 238.240234375 423.529296875 344.666015625 c 0
 436.330078125 404.887695312 398.060546875 425.686523438 359.145507812 425.686523438 c 1
 317.673828125 425.686523438 249.748046875 386.952148438 199.017578125 342.372070312 c 1
 169.52734375 386.836914062 l 1
EndSplineSet
Substitution2: "case-1" two.proportionallining
Substitution2: "lnum-1" two.proportionallining
Substitution2: "tnum-1" two.tabulartext
Substitution2: "numr-1" two.numerator
Substitution2: "dnom-1" two.denom
EndChar
StartChar: five
Encoding: 53 53 68
Width: 488
Flags: HW
LayerCount: 2
Fore
SplineSet
210.8984375 509.0390625 m 1
 362.944335938 501.951171875 397.655273438 505.631835938 428.076171875 507.995117188 c 0
 459.903320312 510.466796875 492.172851562 548.040039062 506.227539062 570.239257812 c 1
 506.227539062 570.239257812 545.180664062 539.563476562 547.91796875 537.970703125 c 1
 506.340820312 483.739257812 461.392578125 420.75390625 440.897460938 420.86328125 c 0
 359.284179688 421.30078125 365.608398438 420.033203125 262.986328125 420.284179688 c 1
 262.986328125 420.284179688 242.436523438 321.940429688 238.990234375 308.461914062 c 1
 376.004882812 316.501953125 439.034179688 237.880859375 414.55859375 122.732421875 c 0
 380.188476562 -38.966796875 190.087890625 -157.603515625 31.3564453125 -177.099609375 c 1
 31.3564453125 -177.099609375 44.919921875 -115.162109375 42.97265625 -111.411132812 c 1
 109.677734375 -103.229492188 296.799804688 -47.861328125 330.599609375 111.155273438 c 0
 338.677734375 149.162109375 330.594726562 235.798828125 145.809570312 227.197265625 c 1
 169.34765625 304.810546875 195.4921875 418.76171875 210.8984375 509.0390625 c 1
EndSplineSet
Substitution2: "case-1" five.proportionallining
Substitution2: "lnum-1" five.proportionallining
Substitution2: "tnum-1" five.tabulartext
Substitution2: "numr-1" five.numerator
Substitution2: "dnom-1" five.denom
EndChar
StartChar: B
Encoding: 66 66 27
Width: 640
Flags: HMW
AnchorPoint: "Top" 376.525 679 basechar 0
AnchorPoint: "Bottom" 249.415 -15 basechar 0
LayerCount: 2
Fore
SplineSet
11.7060546875 67 m 1
 56.7060546875 67 85.4931640625 66 87.5556640625 71 c 0
 91.46875 80 110.024414062 172 134.467773438 287 c 0
 167.83984375 444 194.171875 582 192.1484375 596 c 0
 190.848632812 604 195.3359375 611 184.548828125 612 c 0
 170.76171875 613 136.611328125 617 124.037109375 619 c 1
 151.127929688 690 l 1
 181.065429688 685 189.578125 678 256.578125 678 c 3
 298.578125 678 333.703125 688 375.703125 688 c 3
 532.703125 688 593.635742188 603 573.868164062 510 c 0
 559.4140625 442 524.723632812 387 453.834960938 364 c 1
 555.43359375 348 606.916992188 275 588.212890625 187 c 0
 563.130859375 69 433.827148438 -3 283.827148438 -3 c 3
 224.827148438 -3 184.889648438 2 118.889648438 2 c 3
 43.8896484375 2 33.251953125 -1 1.8271484375 -3 c 1
 11.7060546875 67 l 1
290.598632812 377 m 3
 400.598632812 377 441.950195312 421 455.5546875 485 c 0
 466.607421875 537 462.249023438 620 361.249023438 620 c 3
 341.249023438 620 330.611328125 617 323.973632812 614 c 0
 313.124023438 610 305.384765625 583 302.258789062 573 c 0
 279.467773438 494 263.1875 408 257.598632812 377 c 1
 282.598632812 377 279.598632812 377 290.598632812 377 c 3
337.482421875 320 m 3
 317.482421875 320 266.844726562 317 243.844726562 317 c 1
 223.801757812 218 206.860351562 143 195.95703125 87 c 0
 192.91796875 68 194.493164062 66 207.493164062 66 c 0
 218.493164062 66 276.493164062 66 316.493164062 66 c 3
 387.493164062 66 456.145507812 102 475.0625 191 c 0
 489.303710938 258 433.482421875 320 337.482421875 320 c 3
EndSplineSet
Position2: "cpsp-1" dx=0 dy=0 dh=50 dv=100
Substitution2: "c2pc-1" b.pcap
Substitution2: "c2sc-1" b.smcp
EndChar
StartChar: C
Encoding: 67 67 28
Width: 726
Flags: HW
AnchorPoint: "Top" 502.525 679 basechar 0
AnchorPoint: "Bottom" 341.925 -15 basechar 0
LayerCount: 2
Fore
SplineSet
53.130859375 320 m 0
 92.029296875 503 254.352539062 688 502.352539062 688 c 3
 570.352539062 688 598.439453125 679 655.038085938 663 c 0
 688.125 654 693.762695312 657 713.100585938 668 c 1
 758 644 l 1
 723.583984375 595 721.758789062 577 712.067382812 522 c 0
 706.416015625 486 686.71484375 478 640.502929688 477 c 1
 624.705078125 525 641.294921875 556 628.419921875 566 c 0
 584.072265625 602 548.047851562 616 485.047851562 616 c 3
 336.047851562 616 208.942382812 512 170.89453125 333 c 0
 131.997070312 150 259.654296875 59 382.654296875 59 c 3
 490.654296875 59 565.282226562 109 616.625 200 c 1
 670.6484375 186 l 1
 653.80859375 135 626.15625 99 601.166015625 52 c 1
 527.7265625 17 457.711914062 -16 366.711914062 -16 c 3
 139.711914062 -16 10.8330078125 121 53.130859375 320 c 0
EndSplineSet
Position2: "cpsp-1" dx=0 dy=0 dh=50 dv=100
Substitution2: "c2pc-1" c.pcap
Substitution2: "c2sc-1" c.smcp
EndChar
StartChar: P
Encoding: 80 80 41
Width: 640
Flags: HW
AnchorPoint: "Top" 396.525 679 basechar 0
AnchorPoint: "Bottom" 143.699 -15 basechar 0
LayerCount: 2
Fore
SplineSet
281.171875 266 m 1
 404.171875 266 502.963867188 345 523.369140625 441 c 1
 537.397460938 507 500.426757812 573 458.528320312 597 c 0
 438.078125 609 395.779296875 617 364.991210938 618 c 0
 331.204101562 619 287.440429688 606 287.015625 604 c 0
 274.349609375 535 247.166015625 393 221.447265625 272 c 1
 239.171875 266 259.171875 266 281.171875 266 c 1
132.3828125 681 m 1
 161.532226562 677 177.107421875 675 218.107421875 675 c 1
 293.107421875 675 325.4453125 686 398.4453125 686 c 1
 563.4453125 686 656.213867188 572 629.431640625 446 c 1
 607.963867188 345 495.717773438 198 257.717773438 198 c 1
 243.717773438 198 218.780273438 203 209.206054688 205 c 1
 198.514648438 150 189.82421875 95 187.1484375 73 c 0
 185.384765625 60 236.72265625 71 272.810546875 62 c 1
 250.293945312 -11 l 1
 205.418945312 -1 170.631835938 0 135.631835938 0 c 3
 101.631835938 0 66.84375 1 11.443359375 -15 c 1
 3.109375 54 l 1
 67.5732421875 75 67.384765625 60 69.935546875 72 c 0
 76.7373046875 104 83.5390625 136 92.6796875 179 c 0
 126.262695312 337 166.774414062 537 176.228515625 605 c 0
 177.291015625 610 165.078125 609 112.078125 609 c 1
 132.3828125 681 l 1
EndSplineSet
Position2: "cpsp-1" dx=0 dy=0 dh=50 dv=100
Substitution2: "c2pc-1" p.pcap
Substitution2: "c2sc-1" p.smcp
EndChar
StartChar: h
Encoding: 104 104 7
Width: 496
VWidth: 1159
Flags: HMW
AnchorPoint: "Top" 246.615 749 basechar 0
AnchorPoint: "Bottom" 179.181 -15 basechar 0
LayerCount: 2
Fore
SplineSet
144.723320312 230.77 m 0
 131.021552735 173.249951172 105.892402343 74.1503027344 94.3129296875 -4 c 1
 -0.0507421875 -4 l 1
 35.5276367188 137.5234375 113.808828125 497.047822266 131.934921875 590 c 0
 137.050400391 616.018310546 139.985986328 632.175917969 139.797773438 639.06 c 0
 139.6815625 643.326601562 138.882734375 647.06 132.959882812 647.06 c 3
 127.476972657 647.06 102.37078125 642.027158204 92.5236328124 641.02 c 1
 94.8544433594 652.163339844 96.7361718751 690.366660156 96.5521484376 701.51 c 1
 146.799482422 713.160966797 206.751484374 724.811123047 272.000273438 764 c 1
 301.965117188 728 l 1
 289.263154297 714 274.292197266 690.868593749 268.588867188 681 c 0
 244.342910156 639.505585937 213.214716797 540.075683594 177.253320312 388.19 c 1
 197.441865235 412.414277344 274.862080078 486 345.553320312 486 c 3
 423.762021485 486 476.39 427.39796875 476.39 359.172382812 c 3
 476.39 195.686982422 376.980820312 51.4030078125 314.043320312 -23 c 1
 251.842363281 -7.16063476563 244.297851563 10.9434472656 245.562255859 62.99 c 1
 287.141064453 83.8756835937 399.902695312 200.125214843 399.902695312 318.8 c 3
 399.902695312 374.858779296 364.734521484 406.76 325.483320312 406.76 c 3
 258.059365234 406.76 167.617578125 327.344091797 144.723320312 230.77 c 0
EndSplineSet
Substitution2: "pcap-1" h.pcap
Substitution2: "smcp-1" h.smcp
EndChar
StartChar: q
Encoding: 113 113 16
Width: 507
VWidth: 1159
Flags: HMW
AnchorPoint: "Top" 350.74 537 basechar 0
LayerCount: 2
Fore
SplineSet
324.251953125 183.313476562 m 1
 345.139648438 253.133789062 361.595703125 323.416992188 374.883789062 379.46875 c 1
 374.883789062 385.864257812 372.606445312 394.555664062 364.284179688 406.258789062 c 0
 349.729492188 427.826171875 322.979492188 433.889648438 301.590820312 433.889648438 c 3
 224.96875 433.889648438 126.963867188 320.6640625 117.94921875 211.169921875 c 0
 112.40234375 140.36328125 126.771484375 99.919921875 179.776367188 99.919921875 c 3
 239.7734375 99.919921875 311.831054688 153.25 324.251953125 183.313476562 c 1
299.91015625 81.7744140625 m 1
 250.0390625 45.353515625 200.908203125 24.69140625 139.606445312 24.69140625 c 3
 45.4150390625 24.69140625 15.73046875 94.6201171875 15.73046875 147.142578125 c 3
 15.73046875 290.353515625 170.046875 504 341.793945312 504 c 3
 400.9765625 504 410.600585938 479 424.911132812 479 c 3
 436.109375 479 456.365234375 507.477539062 462.109375 514.122070312 c 1
 513 497 l 1
 511.209960938 491.533203125 504.806640625 477.084960938 501.366210938 468.755859375 c 0
 493.287109375 449.202148438 480.801757812 414.400390625 458.66796875 344.91796875 c 0
 449.333007812 316.100585938 418.278320312 212.112304688 406.686523438 158.9375 c 0
 376.067382812 18.453125 367.338867188 -44.818359375 364.57421875 -74.1982421875 c 0
 362.845703125 -93.0126953125 391.236328125 -98.935546875 409.899414062 -102.5 c 0
 426.17578125 -105.366210938 469.387695312 -110.33984375 479.03515625 -110.33984375 c 1
 471.311523438 -168 l 1
 441.520507812 -167 394.126953125 -164 341.318359375 -164 c 3
 310.407226562 -164 239.778320312 -170.599609375 207.723632812 -175 c 1
 214.013671875 -113.6796875 l 1
 222.590820312 -112.922851562 223.939453125 -113.76171875 231.169921875 -110.337890625 c 0
 242.509765625 -103.825195312 252.806640625 -94.126953125 260.126953125 -73.0888671875 c 0
 265.318359375 -58.1025390625 286.305664062 23.0263671875 299.91015625 81.7744140625 c 1
EndSplineSet
Substitution2: "pcap-1" q.pcap
Substitution2: "smcp-1" q.smcp
EndChar
StartChar: registered
Encoding: 174 174 876
Width: 564
UnlinkRmOvrlpSave: 1
Flags: HW
LayerCount: 2
Fore
SplineSet
251.37890625 522.32421875 m 1
 267.512695312 521.948242188 275.626953125 520.877929688 291.571289062 520.877929688 c 1
 319.661132812 520.877929688 334.328125 539.418945312 334.328125 564.54296875 c 1
 334.533203125 590.771484375 314.36328125 615.270507812 278.276367188 616.07421875 c 1
 268.450195312 615.034179688 259.248050174 613.780443029 254.622070312 594.7734375 c 0
 252 584 251.501953125 544.801757812 251.37890625 522.32421875 c 1
183.099609375 655.712890625 m 1
 197.326171875 655.340820312 207.407226562 654.96484375 223.366210938 654.96484375 c 1
 252.331054688 654.96484375 265.26953125 659.02734375 298.215820312 659.02734375 c 1
 353.229492188 659.02734375 399.930664062 619.983398438 399.930664062 570.790039062 c 1
 399.930664062 528.495117188 373.830078125 499.41796875 343.399414062 484.478515625 c 1
 384.166015625 446.271484375 406.3515625 415.314453125 443.10546875 410.673828125 c 1
 437.510742188 370.610351562 l 1
 370.2109375 373.641601562 319.928710938 416.822265625 278.869140625 472.655273438 c 1
 277.386499819 472.646717939 276.141374216 472.650180238 275 472.66015625 c 0
 267.905974872 472.685358372 262.418024113 472.751544627 253.37890625 472.772460938 c 1
 253.312145672 461.299804688 253.141607898 452.925777469 253.14453125 443.236328125 c 0
 253.130859375 429.364257812 253.063476562 427.659179688 252.892578125 425.012695312 c 1
 253.385742188 374.591796875 l 1
 241.264096882 378.147213799 228.598490234 380.0078125 215.950195312 380.0078125 c 0
 205.0608113 380.0078125 194.184259012 378.628688838 183.678710938 375.764648438 c 1
 183.489257812 425.171875 l 1
 184.001953125 426.271484375 184.173828125 428.940429688 184.223632812 442.385742188 c 1
 184.072265625 479.09765625 183.9921875 502.017578125 183.9921875 525.383789062 c 3
 183.9921875 544.7265625 184.198242188 564.350585938 184.630859375 591.0390625 c 1
 184.47265625 608.942382812 184.227539062 613.072265625 183.099609375 613.716796875 c 1
 183.099609375 655.712890625 l 1
282.897460938 711.6953125 m 3
 182.037109375 711.6953125 88.6064453125 629.452148438 88.6064453125 517.3984375 c 3
 88.6064453125 405.426757812 177.985351562 330.741210938 282.897460938 330.741210938 c 3
 383.762695312 330.741210938 477.193359375 412.986328125 477.193359375 525.040039062 c 3
 477.193359375 629.390625 387.65234375 711.6953125 282.897460938 711.6953125 c 3
282.900390625 766.217773438 m 3
 417.215820312 766.217773438 532.610351562 660.678710938 532.610351562 525.927734375 c 3
 532.610351562 381.82421875 412.581054688 276.21875 282.900390625 276.21875 c 3
 148.763671875 276.21875 33.1962890625 372.307617188 33.1962890625 516.508789062 c 3
 33.1962890625 660.612304688 153.223632812 766.217773438 282.900390625 766.217773438 c 3
EndSplineSet
EndChar
StartChar: Eogonek
Encoding: 280 280 258
Width: 648
UnlinkRmOvrlpSave: 1
Flags: HW
AnchorPoint: "Top" 408.525 679 basechar 0
LayerCount: 2
Back
SplineSet
85.2509765625 684.215820312 m 1xd3a0
 149.500976562 681.030273438 252.91015625 679.139648438 348.677734375 679.139648438 c 0xdba0
 451.5625 679.139648438 545.676757812 681.123046875 569.581054688 687.215820312 c 1
 591.665039062 670.905273438 598.684570312 660.729492188 598.684570312 647.3359375 c 0
 598.684570312 629.392578125 580.731445312 604.849609375 578.490234375 543.140625 c 1
 524.244140625 547.313476562 l 1x9740
 517.6796875 575.799804688 544.249454602 628.417451504 528 627 c 0
 486.835684929 623.409207464 395.783870978 622.787134111 318.000002512 622.787134111 c 0
 275.521506872 622.787134111 237.00005944 623.115158618 212.721679688 623.291992188 c 0
 204.54296875 623.3515625 199.080047613 619.442644395 199 608 c 0
 198.493164063 535.548828125 200 433.189453125 199 366 c 1
 244.111328125 368.1015625 468.743190164 367.124736956 474.029296875 367.649414062 c 0
 482.559570312 368.49609375 483.287109375 397.689453125 494.129882812 429.393554688 c 1
 547.087890625 418.997070312 l 1
 538.954101562 386.731445312 535.262695312 357.520507812 535.262695312 327.434570312 c 0
 535.262695312 306.954101562 537.830078125 285.9140625 542.700195312 262.169921875 c 1
 492.89453125 248.1171875 l 1
 475.56640625 291.19140625 484.264748574 312.408093938 476.526367188 312.28125 c 0
 442.984375 311.731445312 255.364257812 311.29296875 199.275390625 311.376953125 c 1
 199.188476562 221.100585938 197.291743513 133.611129784 199.069335938 73.599609375 c 0
 199.508789062 58.763671875 206.004969341 55.555266231 212 56 c 0
 260.154296875 59.572265625 341.966796875 58.001953125 376.833984375 58.001953125 c 0
 412.94204016 58.001953125 494.307900349 57.7085362529 527 57 c 0
 548.943694196 56.5244140625 552.771428571 96 568 141 c 1
 622 126 l 1
 605 38 581 11 549.630859375 0.54296875 c 0
 443.542188116 -33.6405705147 431 -79.8154717663 431 -98 c 0
 431 -112.439188802 449.981583761 -121 474 -121 c 0
 494.092658674 -121 518.21737778 -112.454966883 542.97265625 -93.599609375 c 1
 542.97265625 -93.599609375 563.92554694 -120.203078613 569 -141 c 1
 545.968797867 -166.004842105 507.165920351 -177 471.771484375 -177 c 0
 419.146786438 -177 372.561523438 -148.506528262 372.561523438 -100.834960938 c 0
 372.561523438 -67.7546141887 388.488613778 -31.2149767541 425.964089813 0.114130003806 c 1
 387.886629996 1.45827568296 349.893760458 3.3037109375 312.853515625 3.3037109375 c 0xbba0
 233.0859375 3.3037109375 158.16796875 0.09765625 97.078125 -13.8818359375 c 1
 87 41 l 1
 125.3203125 48.6240234375 143.080078125 51.0830078125 143.092773438 59.1767578125 c 0
 143.387695312 97.6572265625 143.561523438 225.0078125 143.561523438 345.940429688 c 0
 143.561523438 482.026411314 143.380474775 607.653380628 143.216796875 619.430664062 c 0
 143.131835938 625.543945312 142.502929688 626.177734375 81.6806640625 628.421875 c 1
 85.2509765625 684.215820312 l 1xd3a0
EndSplineSet
Fore
Refer: 257 58029 N 1 0 0 1 553 0 2
Refer: 30 69 N 1 0 0 1 0 0 2
Position2: "cpsp-1" dx=0 dy=0 dh=50 dv=100
Substitution2: "c2pc-1" eogonek.pcap
Substitution2: "c2sc-1" eogonek.smcp
EndChar
StartChar: eogonek
Encoding: 281 281 253
Width: 437
UnlinkRmOvrlpSave: 1
Flags: HW
AnchorPoint: "Top" 209 465 basechar 0
LayerCount: 2
Fore
SplineSet
312.393554688 35.443359375 m 1
 238.061523438 -10 214.98828125 -48.1767578125 210.965820312 -67.099609375 c 0
 206.3125 -88.9921875 216.870117188 -101.971679688 233.719726562 -101.971679688 c 3
 242.694335938 -101.971679688 254.216796875 -98.4560546875 266.922851562 -90.69921875 c 1
 266.922851562 -90.69921875 281.86328125 -118.986328125 282.237304688 -141.099609375 c 1
 256.49609375 -166.104492188 219.74609375 -177.099609375 188.356445312 -177.099609375 c 3
 145.810546875 -177.099609375 114.203125 -148.606445312 124.3359375 -100.934570312 c 0
 138.4453125 -34.5546875 201.280273438 43.14453125 297.487304688 85.900390625 c 1
 312.393554688 35.443359375 l 1
EndSplineSet
Refer: 4 101 N 1 0 0 1 0 0 2
Substitution2: "smcp-1" eogonek.smcp
Substitution2: "pcap-1" eogonek.pcap
EndChar
StartChar: oe
Encoding: 339 339 871
Width: 738
UnlinkRmOvrlpSave: 1
Flags: HW
AnchorPoint: "Top" 440.66 537 basechar 0
AnchorPoint: "Bottom" 347.66 -15 basechar 0
LayerCount: 2
Fore
SplineSet
303.155273438 507 m 3
 391.783203125 507 444.66015625 427.673828125 444.66015625 321.42578125 c 0
 444.66015625 139.922851562 310.497070312 -10 181.793945312 -10 c 3
 87.7275390627 -10 24.755859375 60.2529296875 24.755859375 180.220703125 c 0
 24.755859375 387.733398438 203.83203125 507 303.155273438 507 c 3
277.241210938 435.889648438 m 3
 214.28515625 435.889648438 124.791015625 340.462890625 124.791015625 198.599609375 c 3
 124.791015625 109.364257812 157.15234375 53.2998046875 203.55078125 53.2998046875 c 3
 260.336914062 53.2998046875 352.811523438 157.619140625 352.811523438 303.400390625 c 3
 352.811523438 399.169921875 320.317382812 435.889648438 277.241210938 435.889648438 c 3
EndSplineSet
Refer: 4 101 N 1 0 0 1 304.661 0 2
Substitution2: "smcp-1" oe.smcp
Substitution2: "pcap-1" oe.pcap
EndChar
StartChar: uni018A
Encoding: 394 394 1982
Width: 931
Flags: HW
LayerCount: 2
Fore
SplineSet
464 37 m 3
 664 37 794 146 794 340 c 3
 794 530 656 659 451 659 c 3
 410 659 387 654 346 649 c 0
 318 645 317 627 317 607 c 0
 317 424 313 266 318 86 c 0
 318 68 321 50 349 46 c 0
 380 41 418 37 464 37 c 3
196 653 m 3
 155 653 96 634 96 592 c 3
 96 571 111 554 135 537 c 1
 123 506 98 487 71 487 c 3
 32 487 7 515 7 544 c 3
 7 621 108 686 189 686 c 3
 200 686 234 682 263 682 c 27
 350 682 398 696 485 696 c 3
 700 696 888 560 888 350 c 3
 888 73 665 -7 461 -7 c 3
 387 -7 344 0 270 0 c 3
 196 0 185 -5 155 -10 c 9
 153 28 l 1
 194 32 226 33 228 66 c 0
 238 233 232 512 223 615 c 0
 221 637 220 653 196 653 c 3
EndSplineSet
EndChar
StartChar: uni01B7
Encoding: 439 439 1354
Width: 618
Flags: HW
AnchorPoint: "Top" 330 699 basechar 0
LayerCount: 2
Fore
SplineSet
375 445 m 1
 467.96484375 442.310546875 580 380.493164062 580 237 c 3
 580 133.544921875 517.874023438 -10 301 -10 c 3
 256.797851562 -10 209.310546875 0.4443359375 170 18 c 0
 150.65234375 26.640625 151 24 141 -4 c 1
 109 0 l 1
 110 69 107 87 81 194 c 1
 115 200 l 1
 133 141 139.509765625 122.54296875 161 100 c 0
 196.271484375 63 270.502929688 33 324 33 c 3
 448.666992188 33 500 138.633789062 500 220 c 3
 500 304 408 436.6875 210 346 c 1
 200 373 l 1
 244.62890625 402.534179688 281.083007812 443.462890625 311 480 c 0
 352.62890625 530.83984375 395.142578125 583.23046875 435 635 c 0
 439 639 l 1
 225 639 l 2
 168 639 127 620 89 545 c 1
 61 563 l 1
 108 672 98 709 125 719 c 1
 145 692 180.990234375 682.872070312 193 682 c 0
 214.05078125 680.470703125 444.818359375 678.100585938 514 680.533203125 c 0
 525.415039062 680.934570312 533.982421875 681.420898438 539 682 c 1
 551 660 l 1
 531.573242188 637.099609375 l 0
 375 445 l 1
EndSplineSet
EndChar
StartChar: uni0253
Encoding: 595 595 1990
Width: 507
Flags: HW
LayerCount: 2
Fore
SplineSet
137 332 m 1
 136 241 135 189 135 98 c 3
 135 92 139.047711202 85.0552192754 146 79 c 0
 177 52 219 36 260 36 c 3
 337 36 398 96 398 180 c 3
 398 270 344 369 243 369 c 3
 199 369 147 342 137 332 c 1
71 512 m 3
 71 606.576271186 91.6664492122 649.938384759 140 697 c 0
 178 734 266.484375 767.183908046 274 768 c 1
 295 768 329 740 329 713 c 3
 329 682 300 661 261 661 c 1
 252.882352941 694.75 235.294117647 701 215 701 c 3
 201.829268293 701 171.484739915 687.682705237 155 669 c 0
 140 652 140 563.432989691 140 541 c 0
 140 502 137 484 137 368 c 1
 170 382 226 412 286 412 c 3
 391 412 467 315 467 223 c 3
 467 94 351 -9 210 -9 c 3
 148 -9 141 15 108 15 c 3
 85 15 70 -3 63 -10 c 1
 45 2 l 1
 47 8 51.8855176995 21.6565530986 55 31 c 0
 61 40.9473684211 67.3038468848 51.9981262905 68 94 c 0
 69.5 257.764383562 71 348.235616438 71 512 c 3
EndSplineSet
EndChar
StartChar: uni028B
Encoding: 651 651 1972
Width: 470
Flags: HW
AnchorPoint: "Bottom" 227 -15 basechar 0
AnchorPoint: "Top" 240 465 basechar 0
LayerCount: 2
Fore
SplineSet
146 135 m 3
 146 63.7197265625 190.247070312 47 220 47 c 3
 340.956054688 47 402 155.11328125 402 255 c 3
 402 339.520507812 319 347 268 347 c 1
 266 350 264 353 264 361 c 3
 264 383 294 422 301 430 c 1
 382 430 436 331.124023438 436 251 c 3
 436 124.973632812 351.336914062 -9 204 -9 c 3
 132.245117188 -9 70 38.2607421875 70 131 c 3
 70 189.905273438 73 250.953125 73 312 c 0
 73 322 69 331 59 331 c 3
 49 331 28 319 22 317 c 1
 12 348 l 1
 53 359 107 394 149 422 c 1
 167 406 l 1
 152 323.161132812 146 226.122070312 146 135 c 3
EndSplineSet
EndChar
StartChar: uni02BB
Encoding: 699 699 2652
Width: 157
Flags: HW
LayerCount: 2
Back
SplineSet
209.478515625 682.936523438 m 1
 233.4296875 630 l 1
 202.083007812 611.909179688 163.951171875 576 168.071289062 560.171875 c 0
 174.0859375 537.060546875 188.846679688 518.604492188 211.083007812 508.881835938 c 0
 216.494140625 506.516601562 219.29296875 498.236328125 217.784179688 491.140625 c 0
 216.276367188 484.043945312 210.065429688 479.333007812 204.04296875 475.763671875 c 0
 167.783203125 454.271484375 156.458007812 441.131835938 132.631835938 409.99609375 c 0
 128.368164062 404.424804688 119.810546875 399.350585938 112.712890625 399.350585938 c 3
 105.616210938 399.350585938 101.3046875 405.024414062 98.416015625 409.99609375 c 0
 83.017578125 436.498046875 71.380859375 455.405273438 52.447265625 463.69921875 c 0
 42.8837890625 467.888671875 39.9248046875 475.100585938 41.4697265625 482.366210938 c 0
 51.7509765625 530.73828125 119.404296875 633.913085938 209.478515625 682.936523438 c 1
EndSplineSet
Fore
SplineSet
178.018554688 687 m 1
 219 648 l 1
 193.472285932 623.333333333 153.569134159 573.916071621 157.856445312 537 c 0
 160.465814827 514.531914894 170.52524523 500.204637393 189.442382812 489 c 0
 193.767075414 486.43848073 194.888636292 480.999817057 193.721679688 475 c 0
 192.5546875 469 189.325641997 464.436206273 184 461 c 0
 161.859128959 446.714285714 129.83930603 424.756394501 108.95703125 401 c 0
 104.836299185 396.312113378 96.945286995 393 89.40234375 393 c 3
 81.3054154224 393 77.2157446277 395.974982689 73.95703125 401 c 0
 60.7028991843 421.438202247 35.9892277024 454.077414686 46.8359375 508 c 0
 55.3899568092 550.524861878 87.5952048777 608.872928177 178.018554688 687 c 1
EndSplineSet
EndChar
StartChar: uni0314
Encoding: 788 788 694
Width: 0
Flags: HW
AnchorPoint: "Top" -157.857 537 mark 0
AnchorPoint: "TopMark" -163.857 537 mark 0
AnchorPoint: "TopMark" -113.757 768 basemark 0
LayerCount: 2
Fore
SplineSet
-118.055664062 569 m 1
 -183.108398438 591.731445312 -213.0546875 639.5703125 -208.287109375 662 c 0
 -206.301757812 671.341796875 -201.880859375 677.587890625 -195.186523438 686 c 0
 -188.625 694.244140625 -183.889648438 698.462890625 -176.147460938 705 c 0
 -165.166015625 714.271484375 -154.8125 718 -144.384765625 718 c 3
 -137.953125 718 -132.817382812 715.739257812 -129.234375 714 c 0
 -120.720703125 709.868164062 -111.19140625 703.208984375 -106.2734375 695 c 0
 -103.415039062 690.23046875 -101.333007812 685.306640625 -103.099609375 677 c 0
 -103.609375 674.600585938 -105.362304688 672.151367188 -106.375 671 c 0
 -109.435546875 667.518554688 -112.599609375 664.994140625 -114.712890625 660 c 0
 -122.750976562 641 -103.137695312 624.435546875 -82.9150390625 612 c 1
 -118.055664062 569 l 1
EndSplineSet
EndChar
StartChar: uni0327
Encoding: 807 807 268
Width: 0
UnlinkRmOvrlpSave: 1
Flags: HW
AnchorPoint: "Bottom" -196.188 -15 mark 0
LayerCount: 2
Fore
SplineSet
-319.559570312 -172 m 1
 -304.857421875 -121.80859375 l 1
 -270.196289062 -125.244140625 -236.4765625 -125.3828125 -231.930664062 -103.997070312 c 0
 -229.509765625 -92.6083984375 -234.454101562 -86.111328125 -238.916992188 -82.1259765625 c 1
 -265.586914062 -59.4599609375 l 1
 -262.799804688 -57.6982421875 -259.743164062 -55.0458984375 -256.415039062 -52.0732421875 c 0
 -236.293945312 -34.1025390625 -226.82421875 -26.96875 -201.424804688 -2 c 1
 -139.724609375 6 l 1
 -139.724609375 6 -174.544921875 -42.15625 -179.721679688 -50.92578125 c 1
 -164.075195312 -59.8466796875 -148.713867188 -72.0595703125 -155.380859375 -103.42578125 c 0
 -166.70703125 -156.70703125 -256.486328125 -185.889648438 -319.559570312 -172 c 1
EndSplineSet
EndChar
StartChar: uni0328
Encoding: 808 808 254
Width: 0
Flags: HW
AnchorPoint: "Ogonek" -104.35 21.6582 mark 0
LayerCount: 2
Fore
SplineSet
-94.19140625 5.54296875 m 1
 -175.919461231 -24.7745286807 -188.241210938 -53.6133557764 -188.241210938 -67 c 3
 -188.241210938 -88.8923655295 -178.196904487 -101.872070312 -165.487304688 -101.872070312 c 3
 -155.815074095 -101.872070312 -144.201884922 -98.3566623267 -132.28515625 -90.599609375 c 1
 -132.28515625 -90.599609375 -119.956504299 -118.886828613 -116.970703125 -141 c 1
 -139.208691059 -166.004842105 -176.675164455 -177 -210.850585938 -177 c 3
 -244.809991273 -177 -274.872070312 -148.506528262 -274.872070312 -100.834960938 c 3
 -274.872070312 -45.1138248367 -228.508390893 20.109327726 -109.096679688 56 c 1
 -94.19140625 5.54296875 l 1
EndSplineSet
EndChar
StartChar: uni0372
Encoding: 882 882 955
Width: 788
Flags: HW
LayerCount: 2
Fore
SplineSet
158 312 m 0
 158.665039062 281.520507812 180.604492188 284.922851562 194 279 c 1
 194 279 190 256 189 242 c 1
 156.827148438 246.689453125 128.735351562 249.362304688 102 249.442382812 c 0
 78.232421875 249.50390625 55.537109375 247.805664062 32 244 c 1
 32 244 27 268 25 286 c 1
 44.63671875 290.875 66.4541015625 290.875 67 312 c 1
 79 416.999023438 84 603.912109375 72 627 c 1
 68.181640625 644.111328125 50.7275390625 644.111328125 30 648 c 1
 33 686 l 1
 56.6533203125 684.20703125 78.353515625 682.822265625 100.5 682.159179688 c 1
 266.081054688 682.954101562 520.212890625 682.123046875 692.5 681.71484375 c 1
 711.781561669 682.356445312 732.101313165 684.06640625 757 687 c 1
 763 650 l 1
 742.451843262 641.7890625 737.838684082 643.158203125 737 624 c 0
 726 527.192382812 709 335.813476562 730 300 c 1
 734.56677576 280.357421875 748.775918497 279.571289062 764 278 c 1
 764 278 759 258 760 244 c 1
 736.210531656 247.758789062 711.724685471 249.825195312 686 249.58984375 c 0
 661.250976562 249.32421875 635.399414062 246.657226562 608 241 c 1
 608 241 602 264 600 276 c 1
 622.897460938 284.461914062 637.20703125 286.1328125 638 309 c 0
 649.390625 412.486328125 649.434570312 496.606445312 643 611 c 0
 642.609375 627.709960938 617.73828125 642.413085938 576.5 643.53125 c 0
 529.358398438 645.216796875 463.9140625 651.794921875 461 611 c 0
 450 443.37890625 433 112.009765625 454 50 c 0
 463 25 491 24 521 22 c 1
 521 22 516 -0.94140625 517 -17 c 1
 442.306640625 5.56640625 367.328125 4.1357421875 286 -15 c 1
 286 -15 280 8 278 20 c 1
 325 30 354.373046875 31.974609375 356 59 c 0
 367.390625 248.15625 367.434570312 401.911132812 361 611 c 0
 360.181640625 655.258789062 275.310546875 646.499023438 226.5 646.43359375 c 0
 194.55859375 646.610351562 171.834960938 639.114257812 170 632 c 0
 156.96484375 567.3046875 151.73828125 391.74609375 158 312 c 0
EndSplineSet
Position2: "cpsp-1" dx=0 dy=0 dh=50 dv=100
EndChar
StartChar: Sigma
Encoding: 931 931 993
Width: 626
Flags: HW
AnchorPoint: "Top" 461.525 679 basechar 0
AnchorPoint: "Bottom" 303.812 -15 basechar 0
LayerCount: 2
Back
SplineSet
18 548 m 1
 48 615 49 708 105 719 c 1
 122 700 144 680 146 680 c 0
 180.209416188 679.287344186 359.180360402 676.03515625 493.947265625 676.03515625 c 3
 556.234189517 676.03515625 599.343509288 678 635 678 c 1
 661 639 l 1
 662 639 656 633 655 633 c 0
 649 632 206 69 198 67 c 1
 294 67 404.968757626 70 469 70 c 3
 574.0428484 70 587 92 615 178 c 1
 677 150 l 1
 639 61 625 15 594 -30 c 1
 562 -11 561.022460938 2 473 2 c 3
 356.982421875 2 105 3 42 0 c 1
 22 53 l 1
 64 74 95 105 126 138 c 1
 248 284 376 456 497 606 c 1
 500 610 l 1
 478 606 150 606 139 605 c 1
 117 611 109 599 79 528 c 1
 18 548 l 1
EndSplineSet
Fore
SplineSet
40.212890625 1 m 1
 32.265625 53 l 1
 69.234375 68.0341796875 104.423828125 92.0625 129.65625 116 c 0
 208.681640625 190.967773438 288.51171875 266.940429688 367.97265625 343.299804688 c 1
 322.479492188 421.344726562 257.389648438 515.115234375 214.018554688 588.299804688 c 0
 195.274414062 619.928710938 183.048828125 628.299804688 157.973632812 635 c 1
 180.6640625 690 l 1
 252.411132812 686.35546875 332.18359375 684.96875 413.55078125 684.96875 c 0
 562.403320312 684.96875 697.157226562 689.186523438 715.301757812 693 c 1
 729.615234375 676.72265625 734.022460938 667.532226562 730.952148438 653.086914062 c 0
 727.483398438 636.768554688 701.7421875 609.34375 672.954101562 522 c 1
 615.31640625 519 l 1
 608.841796875 554.234375 639.501953125 603.545898438 588.872070312 611 c 1
 546.524414062 617.612304688 477.881835938 621.077148438 411.21875 621.077148438 c 0
 388.397460938 621.077148438 354.724609375 619.799804688 334.185546875 617.193359375 c 1
 371.041992188 553.228515625 415.26953125 488.633789062 455.502929688 425.299804688 c 0
 464.918945312 410.477539062 491.071289062 389.299804688 505.750976562 381.299804688 c 1
 491.721679688 315.299804688 l 1
 473.52734375 307.461914062 442.532226562 292.522460938 431.456054688 281.299804688 c 0
 356.748046875 205.602539062 285.228515625 137.913085938 212.028320312 66 c 1
 274.590820312 67 337.786132812 67 400.241210938 67 c 0
 422.645507812 67 464.288085938 70.7919921875 487.4296875 82 c 0
 541.547851562 108.211914062 556.212890625 117.05078125 604.047851562 179 c 1
 655.646484375 163 l 1
 620.041992188 99.7177734375 596.250976562 59.447265625 567 0 c 1
 418.282226562 -0.7734375 288.5234375 2.4833984375 164.139648438 2.4833984375 c 0
 126.80078125 2.4833984375 86.630859375 2.08984375 40.212890625 1 c 1
EndSplineSet
Position2: "cpsp-1" dx=0 dy=0 dh=50 dv=111
Substitution2: "c2pc-1" sigma.pcap
Substitution2: "c2sc-1" sigma.smcp
EndChar
StartChar: uni03F5
Encoding: 1013 1013 1045
Width: 416
UnlinkRmOvrlpSave: 1
Flags: HW
LayerCount: 2
Fore
SplineSet
90 208 m 1
 150.578125 217.303710938 226.774414062 225.270507812 314 232 c 1
 316 186 l 1
 234.30078125 178.610351562 155.83203125 172.602539062 90 172 c 1
 90 208 l 1
EndSplineSet
Refer: 1042 1010 N 1 0 0 1 0 0 2
EndChar
StartChar: afii10021
Encoding: 1044 1044 1270
Width: 696
Flags: HW
LayerCount: 2
Fore
SplineSet
327.494140625 684.529296875 m 1
 381.874621568 684 496.052648079 683.529296875 512.505859375 683.529296875 c 0
 551.139648438 683.529296875 558.34375 679 670 692 c 1
 672 649 l 1
 623.280273438 647 591.818730304 656.964561447 588 616 c 0
 577 498 568.933656695 319.263888956 580 66 c 0
 580.684311578 50.3389420217 588.236790467 41.7731006299 600.009765625 37 c 1
 676 37 l 1
 676 -240 l 1
 637 -240 l 1
 614.289805381 -63.9954910039 589.788800497 -6.18479577057 507.576171875 -0.4794921875 c 1
 410.033968132 -0.553448500389 298.874642269 -0.238335354242 203 0.05078125 c 1
 203 0 l 1
 109 0 83 -54 59 -240 c 1
 20 -240 l 1
 20 37 l 1
 61.990234375 37 l 1
 183.004425658 61.432012089 268.939563044 306.87533935 252 617 c 1
 248.181269696 659.205911794 216.719726562 648.939393939 168 651 c 1
 170 694 l 1
 281.65625 679.465298593 288.860351562 684.529296875 327.494140625 684.529296875 c 1
454.541015625 35.6650390625 m 3
 475.90389393 35.6650390625 488.469408242 53.2758277482 490 77 c 0
 500 232 501.918377741 405.224333887 488 614 c 0
 487 629 473.185546875 643 463 643 c 0
 418.73832194 643 381.228594402 649.418085178 333 637 c 0
 317.86328125 633.102539062 296.461413377 618.457941124 294.963867188 592 c 0
 284.81329793 412.6645206 272.908139078 134.311510063 146.91015625 37 c 1
 238.299844626 37 344.135137502 35.6650390625 454.541015625 35.6650390625 c 3
EndSplineSet
Position2: "cpsp-1" dx=0 dy=0 dh=50 dv=100
EndChar
StartChar: afii10024
Encoding: 1046 1046 1264
Width: 1061
Flags: HW
AnchorPoint: "Top" 533 699 basechar 0
AnchorPoint: "Bottom" 530 -15 basechar 0
LayerCount: 2
Fore
SplineSet
672.613197921 391.104788955 m 1
 778.318230619 322.259660144 832.833705603 127.003988055 939.84765625 49 c 0
 967.971679688 28.5 1006.453125 20.671875 1032 12 c 1
 1028.27636719 -12 l 1
 1018.40039062 -12 1004.75 -14 994.766601562 -14 c 0
 933.685546875 -14 867.783178324 8.30652205831 833.733398438 39 c 0
 724.793871843 137.201309015 698.122291683 278.42125853 610.550394376 326.168096987 c 1
 596.302162634 311.166847285 582.086743898 296.126402293 567.912575173 281.036681595 c 1
 568.360365457 209.853444366 569.882989171 139.340724752 572.46484375 71 c 0
 573.826120535 34.9675128464 596.931274485 29 653 28 c 1
 650.20703125 -5 l 1
 569.125 3.8 482.658203125 0.8 410.985351562 -7 c 1
 407.26171875 23 l 1
 457.739765637 36.2881355932 484.303254866 38.2236649836 486.828125 79 c 0
 489.732019575 125.897532051 492.514478034 206.01131228 493.277525756 278.774435015 c 1
 478.748822429 294.350140528 464.293050705 309.973532369 449.870360619 325.613501956 c 1
 363.81175583 276.349808656 342.709342092 128.755570384 227.266601562 39 c 0
 191.076171875 10.8623046875 127.315429688 -14 66.2333984375 -14 c 0
 56.2490234375 -14 42.599609375 -12 32.7236328125 -12 c 1
 29 12 l 1
 54.546875 20.671875 94.3484749768 26.8017272495 121.15234375 49 c 0
 223.400490261 133.679277595 282.558629669 323.658391878 389.10539251 391.611546402 c 1
 320.368964702 466.151902654 251.109977856 540.073869906 177.001953125 610 c 0
 150.749023438 634.771484375 126.737304688 646 88.5732421875 656 c 1
 96.9501953125 692 l 1
 160.247070312 678 235.643554688 676 295.216796875 683 c 1
 296.147460938 656 l 1
 261.70703125 650 242.158105084 643.999956492 243.08984375 621 c 0
 243.818359375 603.016601562 255.796871019 595.533917357 265.4296875 584 c 0
 339.432617188 495.392096297 417.155273438 415.704845815 493.482421875 331 c 1
 493.482421875 427.011952191 492.043613167 515.371619791 487.10546875 608 c 0
 484.801731018 651.212890625 462.925617901 652 410.985351562 657 c 1
 413.77734375 689 l 1
 487.3125 679 570.15625 676 644.622070312 688 c 1
 650.20703125 657 l 1
 589.202939031 645 574.641001458 644.00127374 572.741210938 589 c 0
 569.817718242 504.361288392 568.178484144 417.754189563 567.830222575 331.325195312 c 1
 644.052610805 415.907433688 717.038629319 499.625631501 795.5703125 584 c 0
 805.80859375 595 817.182480845 603.016567544 817.91015625 621 c 0
 818.840820312 644 799.29296875 650 764.852539062 656 c 1
 765.783203125 683 l 1
 825.356445312 676 900.752929688 678 964.049804688 692 c 1
 972.426757812 656 l 1
 934.262695312 646 909.004222703 636.028496912 883.998046875 610 c 0
 813.70505484 536.833237569 742.91111574 464.265221788 672.613197921 391.104788955 c 1
EndSplineSet
Position2: "cpsp-1" dx=0 dy=0 dh=50 dv=100
EndChar
StartChar: afii10045
Encoding: 1067 1067 1262
Width: 773
Flags: HW
AnchorPoint: "Top" 396 699 basechar 0
AnchorPoint: "Bottom" 389 -15 basechar 0
LayerCount: 2
Fore
SplineSet
500 697 m 1
 598.505137087 679 654.550538031 681 759 694 c 1
 761 651 l 1
 714.599609375 649 684.831054688 658.946289062 681 618 c 0
 670 500.428710938 662.455078125 322.3671875 673 70 c 0
 674.629882812 31 717 36 761 34 c 1
 760 -5 l 1
 680.433908896 6 583.537354488 8 515 -6 c 1
 510 34 l 1
 549.83203125 34 585.767578125 31.0869140625 589 81 c 0
 599 235.422851562 597.981445312 495.44921875 587 616 c 0
 583.720703125 652 539.450195312 649 496 654 c 1
 500 697 l 1
243 349 m 0
 184 349 l 1
 185 251 185.405273438 155.012695312 187 96 c 0
 188 59 193.568359375 49.078125 219 41 c 0
 225.296875 39 253.629882812 34 270 34 c 3
 349.505859375 34 410 83 410 178 c 3
 410 262 361.810546875 349 243 349 c 0
192 616 m 0
 186.870117188 523.665039062 186 379 186 379 c 1
 235.564453125 379 278.624023438 377.393554688 320 371.883789062 c 0
 435.134765625 356.551757812 500 273.93359375 500 181 c 3
 500 70 406.59765625 -4 261 -4 c 3
 217.9375 -4 177.3125 2 131 2 c 3
 72 2 27 -2 20 -2 c 1
 17 34 l 1
 64 36 101 35.9462890625 101 73 c 0
 101 78 104 176 104 292 c 3
 104 462.579101562 103.145507812 531.05859375 100 616 c 0
 99 643 85 643 12 657 c 1
 17 688 l 1
 90.2939453125 681.428710938 178 681.571289062 290 692 c 1
 292 649 l 1
 234 647 194 652 192 616 c 0
EndSplineSet
Position2: "cpsp-1" dx=0 dy=0 dh=50 dv=100
EndChar
StartChar: afii10076
Encoding: 1082 1082 1087
Width: 473
Flags: HW
AnchorPoint: "Bottom" 248 -15 basechar 0
AnchorPoint: "Top" 246 465 basechar 0
LayerCount: 2
Fore
SplineSet
99.1924 321.732 m 0
 89.6152 365.95 84.3121 366.714 36.3643 375.852 c 1
 40.3848 401.449 l 1
 90.3643 394.215 166.987 396.023 216.002 401.944 c 1
 218.133 375.367 l 1
 186.405 371.497 175.571 373.231 170.203 332.756 c 1
 166.605 285.933 168 264.163 167 211 c 1
 202.172 243.143 253.929538102 289.429253379 287 328 c 0
 292.772 334.732 301 348 301 355 c 3
 301 373 284.058823529 372 277 374 c 1
 279 401 l 1
 302.045454545 399 333.068181818 399 357 399 c 3
 378.694444444 399 406.962962963 399 428 403 c 1
 430 373 l 1
 399.395522388 365.731 358.895766542 342.739618472 333 319 c 2
 243.5 236.952 l 1
 333.305044779 173.635001123 390.080867319 9.25098403853 453.900390625 7.8994140625 c 1
 449 -18 l 1
 300 -47 268 175 179 185 c 1
 169 177 l 1
 169 124.725 172.306024313 74.2048176505 175 54 c 0
 177 39 185.619315018 37.1522739927 196 33 c 0
 206 29 216 28 230 27 c 1
 225 -7 l 1
 191 -1 172 4 130 4 c 3
 100 4 64 -3 34 -5 c 1
 32 28 l 1
 43 29 54.2438024311 30.030722479 64 33 c 0
 87 40 93.3132247115 48.0575369992 96 76 c 0
 101 128 105 170 105 235 c 3
 105 251.155 103.358792487 302.49573648 99.1924 321.732 c 0
EndSplineSet
EndChar
StartChar: afii10088
Encoding: 1094 1094 1236
Width: 510
Flags: HW
LayerCount: 2
Fore
SplineSet
489.599609375 31.2001953125 m 1
 489.599609375 -144 l 1
 462.200195312 -144 l 1
 448.57421875 -38.3974609375 433.873046875 -3.7109375 384.545898438 -0.2880859375 c 0
 364.55078125 -0.2880859375 130.084960938 0.0625 107.47265625 0.0625 c 3
 79.650390625 0.0625 51.265625 -2.7841796875 22 -9 c 1
 18 15 l 1
 44 22 52.1025390625 24.98828125 55 51 c 0
 65 140.77734375 66.3642578125 323.4921875 59 354 c 0
 52 383 35 385 19 388 c 1
 19 388 22 404 22 411 c 1
 64 402 126 401 175 413 c 1
 175 411 180 397 181 389 c 1
 156 381 139.435546875 379.172851562 137 350 c 0
 129.008789062 254.278320312 125.620117188 176.330078125 132 70 c 0
 134 31.6669921875 155.455078125 24 180 24 c 0
 300 24 l 3
 313.341796875 24 341.4765625 29.5908203125 345 47 c 0
 359.267578125 99.099609375 354.376953125 274.936523438 352 351 c 0
 351 383 322 382 304 388 c 1
 304 388 307 405 307 412 c 1
 362 402 425 401 471 411 c 1
 471 411 474 393 475 384 c 1
 456 379 432.901367188 379.009765625 430 350 c 0
 420 250.020507812 420.9921875 73.2392578125 425 54 c 0
 430 30 447.599609375 30.2001953125 489.599609375 31.2001953125 c 1
EndSplineSet
EndChar
StartChar: afii10092
Encoding: 1098 1098 1240
Width: 526
Flags: HW
LayerCount: 2
Fore
SplineSet
205 403 m 3
 237 403 280 405 310 409 c 1
 311 382 l 1
 305 382 279.897460938 380.353515625 269 377 c 0
 256 373 255.87109375 359.01171875 255 349 c 0
 250 291.5 250 236.090820312 249 234 c 1
 303 234 344.211914062 238.157226562 380 231 c 0
 440 219 490 177 490 121 c 1
 490 46.599609375 430 -3 339 -3 c 3
 300 -3 250 1 207 1 c 3
 172 1 138 -2 132 -2 c 1
 130 22 l 1
 142 23 177 26 177 55 c 0
 177 57.0703125 181 107.805664062 181 172 c 1
 181 258.658203125 176.107421875 333.974609375 176 335 c 0
 174.154296875 352.61328125 167.296875 366 152 366 c 27
 125.850585938 366 107.41796875 365.96484375 85 358 c 0
 56.9873046875 348.046875 55 346 33 311 c 1
 7 323 l 1
 22 354 41 403 49 420 c 1
 61 411 72.9814453125 403.365234375 96 403 c 0
 144.702148438 402 180.262695312 403 205 403 c 3
315 214 m 0
 289 215 248 215 248 215 c 1
 248 160.463867188 248.787109375 106.94921875 250 73 c 0
 251 45 254.318359375 36.560546875 268 32 c 0
 274 30 322 25 337 25 c 3
 386 25 412 60.5810546875 412 115 c 1
 412 165 382.21875 211.415039062 315 214 c 0
EndSplineSet
EndChar
StartChar: afii10093
Encoding: 1099 1099 1241
Width: 551
Flags: HW
AnchorPoint: "Top" 282 465 basechar 0
AnchorPoint: "Bottom" 286 -15 basechar 0
LayerCount: 2
Fore
SplineSet
352 409 m 1
 409 397 463 398 524 407 c 1
 525 379 l 1
 501 378 485 384 480 349 c 0
 471 286 462 202 473 65 c 0
 475 36 500 21 526 20 c 1
 525 -6 l 1
 476 1 401 1 359 -7 c 1
 356 19 l 1
 380 20 401 32 405 69 c 0
 413 149 417 284 403 348 c 0
 396 379 374 377 350 381 c 1
 352 409 l 1
206 382 m 1
 200 382 175 380 164 377 c 0
 151 373 151 359 150 349 c 0
 145 292 145 237.072727273 144 235 c 1
 181 235 209 237 234 232 c 0
 294 220 344 178 344 122 c 1
 344 47 284 -3 193 -3 c 3
 167 -3 134 1 106 1 c 3
 71 1 37 -2 31 -2 c 1
 29 22 l 1
 41 23 76 26 76 55 c 0
 76 57.0884955752 80 108.256637168 80 173 c 1
 80 259.126582278 75 333.974683544 75 335 c 0
 74 360 74 376 62 379 c 0
 57 380 33 383 28 384 c 1
 32 409 l 1
 40 409 72 403 104 403 c 3
 135 403 176 405 205 409 c 1
 206 382 l 1
165 215 m 0
 156 216 143 216 143 216 c 1
 143 161.079710145 144 107.195652174 145 73 c 0
 146 45 153 42 163 32 c 0
 165 30 185 25 191 25 c 3
 240 25 266 60.976744186 266 116 c 1
 266 166 234 204 165 215 c 0
EndSplineSet
EndChar
StartChar: afii57679
Encoding: 1503 1503 2407
Width: 305
UnlinkRmOvrlpSave: 1
Flags: HW
AnchorPoint: "HbMiddle" 93.3 292.52 basechar 0
AnchorPoint: "HbTopRight" 246 638 basechar 0
AnchorPoint: "HbBottomLeft" 105 0 basechar 0
AnchorPoint: "HbBottomRight" 228 0 basechar 0
AnchorPoint: "HbTopLeft" 86.8838 638.023 basechar 0
AnchorPoint: "HbTop" 176.266 638.023 basechar 0
LayerCount: 2
Back
SplineSet
243.325195312 498.737304688 m 1
 257.727539062 473.647460938 252.091796875 444.97265625 248.9375 390.01171875 c 1
 247.077148438 317.484035416 241.008857217 248.275698337 234.629882812 187.583984375 c 0
 224.889648437 94.912109375 214.379882812 7.3896484375 205.493164062 -64.6875 c 1
 183.608398438 -102.232421875 159.327148438 -141.220703125 141.259765625 -174.432617188 c 1
 89.3173828125 -156.959960938 l 1
 140.758789062 58.8012216508 185.612304688 262.145144931 191.546875 412.712890625 c 1
 203.499023438 462.893554688 205.302734375 492.763671875 243.325195312 498.737304688 c 1
91.9951171875 593.840820312 m 1
 109.6640625 589.2265625 127.330078125 584.612304688 145 580 c 1
 150.076589666 577.882115385 158.266406094 575.764519231 163.537109375 574 c 1
 191.056233929 562.000170213 220 534 235 516 c 1
 263.891507688 484.81556457 250 409 237.892578125 347.284179688 c 1
 222.378978791 340.547772765 206.189001114 334.774133754 189.999023438 329 c 1
 182 386 110 416 56 443 c 1
 38.6103272482 480.710673976 63.3826657063 537.275747144 91.9951171875 593.840820312 c 1
EndSplineSet
Fore
SplineSet
91.9951171875 593.840820312 m 1
 164.070491298 580.234832215 227.301690464 551.342799761 249.777606096 482.937746285 c 0
 256 464 242.050632087 258.187495812 234.629882812 187.583984375 c 0
 224.889648437 94.912109375 214.379882812 7.3896484375 205.493164062 -64.6875 c 1
 183.608398438 -102.232421875 159.327148438 -141.220703125 141.259765625 -174.432617188 c 1
 89.3173828125 -156.959960938 l 1
 133.218498695 27.1749095932 172.321486526 202.265974815 186.53042046 343.227449421 c 1
 169.654996159 391.17755223 105.319920909 418.340038925 56 443 c 1
 38.6103272482 480.710673976 63.3826657063 537.275747144 91.9951171875 593.840820312 c 1
EndSplineSet
EndChar
StartChar: afii57681
Encoding: 1505 1505 2409
Width: 576
UnlinkRmOvrlpSave: 1
Flags: HW
AnchorPoint: "HbBottomLeft" 95 0 basechar 0
AnchorPoint: "HbBottomRight" 455 0 basechar 0
AnchorPoint: "HbTopRight" 473 638 basechar 0
AnchorPoint: "HbTopLeft" 139.065 638.023 basechar 0
AnchorPoint: "HbBottom" 248.907 0 basechar 0
AnchorPoint: "HbMiddle" 309.252 292.52 basechar 0
AnchorPoint: "HbTop" 324.616 638.023 basechar 0
LayerCount: 2
Back
SplineSet
476.500976562 560.361328125 m 0
 500.3359375 540.872070312 557.276689481 356.109341126 547.349609375 261.661132812 c 0
 541.606445312 207.01953125 383.123046875 -17.9228515625 197.224609375 -17.9228515625 c 3
 135.671875 -17.9228515625 50.2296889973 167.392660081 58.6435546875 247.440429688 c 0
 65.9365234375 316.82421875 99.3916015625 407.850585938 166.887695312 489.415039062 c 1
 226.95703125 475.818359375 l 1
 174.240234375 410.938476562 145.684092372 348.110401795 141.256835938 305.985351562 c 0
 135.829101562 254.340820312 212.639648438 136.966796875 257.256835938 136.966796875 c 3
 323.905273438 136.966796875 466.936590033 201.364250813 474.828125 276.447265625 c 0
 478.938476562 315.5546875 437.191060249 406.426594001 421.321289062 418.73828125 c 0
 399.268554688 435.846679688 257.766601562 437.04296875 169.262695312 441.110351562 c 1
 135.809570312 445.918198916 103.362304688 458.416401648 70.7880859375 469.955078125 c 1
 127.525390625 608.322265625 l 1
 184.436523438 597.091796875 l 1
 213.838867188 594 l 1
 308.602539062 591.075195312 453.081645133 579.510735973 476.500976562 560.361328125 c 0
EndSplineSet
Fore
SplineSet
471.500976562 552.361328125 m 1
 543 504 556.989978752 353.669670617 547.349609375 261.661132812 c 0
 539.524645216 174 437.454503913 -17.9228515625 219.224609375 -17.9228515625 c 3
 120.462547547 -17.9228515625 48.8939721808 167.392660081 58.6435546875 247.440429688 c 0
 65.9365234375 316.82421875 99.3916015625 407.850585938 166.887695312 489.415039062 c 1
 226.95703125 475.818359375 l 1
 174.240234375 410.938476562 145.684092372 348.110401795 141.256835938 305.985351562 c 0
 134.799703663 254.340820312 194.485763291 136.966796875 279.256835938 136.966796875 c 3
 387.072998361 136.966796875 465.993783467 178 474.828125 276.447265625 c 0
 479.099382418 313.375697828 468 378 416.321289062 410.73828125 c 0
 376.316221396 436.081350628 256.010979884 435.588518534 169.262695312 441.110351562 c 1
 135.809570312 445.918198916 103.362304688 458.416401648 70.7880859375 469.955078125 c 1
 127.525390625 608.322265625 l 1
 200.459886792 579.878397911 385 606 471.500976562 552.361328125 c 1
EndSplineSet
EndChar
StartChar: afii57684
Encoding: 1508 1508 2412
Width: 537
UnlinkRmOvrlpSave: 1
Flags: HW
AnchorPoint: "HbTopRight" 472 638 basechar 0
AnchorPoint: "HbBottomLeft" 10 0 basechar 0
AnchorPoint: "HbBottomRight" 391 0 basechar 0
AnchorPoint: "HbMiddle" 327.091 292.52 basechar 0
AnchorPoint: "HbTopLeft" 190.154 638.023 basechar 0
AnchorPoint: "HbBottom" 215.416 0 basechar 0
AnchorPoint: "HbTop" 334.025 638.023 basechar 0
LayerCount: 2
Fore
SplineSet
398.1796875 383.416992188 m 0
 367.253525838 415.82835839 319 432.049859146 156.6015625 448.938476562 c 1
 188.653320312 599.126953125 l 1
 214.368462366 597.4752332 240.584656352 595.324565206 265.442382812 593.815429688 c 1
 372 588.095314347 426.51421326 556.155529323 451 527 c 0
 489 481.752929688 516.962044139 373 505.700195312 278.16796875 c 0
 492.793453037 169.484873655 421 0 287 0 c 3
 193.55365009 0 96.8036758023 -5.56188644796 45.2314453125 -6.6484375 c 1
 -8.4892578125 4.71484375 l 1
 31.0458984375 136.704101562 l 1
 80.2178127886 146.050336308 124.561893858 146.365234375 305.041992188 146.365234375 c 3
 412.281879195 146.365234375 429.247814567 215.21045202 434.001953125 271 c 0
 438.15137637 319.693247873 426.248688057 354 398.1796875 383.416992188 c 0
190.024414062 381.537109375 m 1
 198.054740448 351.616272821 221.291006508 333.292143352 257 325 c 1
 255.950304047 292.948485069 238.995205429 271.080306191 213 255 c 0
 195.353345836 243.566963081 163.565405557 236.20790674 139 239 c 1
 126.999999999 263 122.284792976 321.059503712 129.331054688 362.088867188 c 0
 135 394 157.243695822 456.750560728 168.408203125 495.2578125 c 1
 216.337890625 480.919921875 l 1
 203.492317364 449.259299849 195.95656786 417.108443956 190.024414062 381.537109375 c 1
EndSplineSet
EndChar
StartChar: afii57690
Encoding: 1514 1514 2418
Width: 548
UnlinkRmOvrlpSave: 1
Flags: HW
AnchorPoint: "HbTopRight" 456 638 basechar 0
AnchorPoint: "HbBottomLeft" 10 0 basechar 0
AnchorPoint: "HbBottomRight" 445 0 basechar 0
AnchorPoint: "HbTopLeft" 166.03 638.023 basechar 0
AnchorPoint: "HbBottom" 238.693 0 basechar 0
AnchorPoint: "HbMiddle" 312.038 284.52 basechar 0
AnchorPoint: "HbTop" 323.452 638.023 basechar 0
LayerCount: 2
Back
SplineSet
252.944335938 580.2578125 m 1
 404.6328125 579.0625 468.919921875 573.696289062 501.8203125 556.361328125 c 0
 530.978515625 540.998046875 601.8828125 427.455078125 564.981445312 193.557617188 c 0
 559.434570312 158.400390625 556.485351562 125.1953125 551.01171875 98.0517578125 c 1
 531.561523438 58.611328125 510.0546875 17.8095703125 494.045898438 -16.19140625 c 1
 445.283203125 -4.779296875 l 1
 465.654296875 81.29296875 488.890625 161.4765625 496.171875 230.750976562 c 0
 504.713867188 312.02734375 500.508789062 370.973632812 438.62890625 405.809570312 c 0
 411.470703125 421.098632812 339.543945312 430.40625 232.614257812 430.40625 c 3
 191.642578125 430.40625 129.891601562 438.299804688 112.131835938 468.883789062 c 1
 165.619140625 616.1015625 l 1
 219.309570312 611.157226562 l 1
 252.944335938 580.2578125 l 1
299.217773438 459.665039062 m 1
 218.233398438 402.754882812 183.13671875 262.956054688 232.674804688 155.32421875 c 1
 160.052734375 0 l 1
 48.884765625 0 l 1
 15.1533203125 -15.1611328125 l 1
 -4.25 -2.3896484375 l 1
 38.2607421875 140.176757812 l 1
 69.484375 162.877929688 131.84375 170.045898438 176.6640625 172.436523438 c 1
 118.015625 121.787109375 l 1
 113.341796875 246.184570312 147.959960938 429.506835938 249.579101562 474.028320312 c 1
 299.217773438 459.665039062 l 1
EndSplineSet
Fore
SplineSet
204.302734375 579.240234375 m 0
 378.673194374 578.080078125 413.292835423 577.319829334 448.3046875 556.040039062 c 0
 473.952148438 540.451815151 535.48542096 425.109059762 500.514648438 187.919921875 c 0
 496.39414431 159.972617567 493.917342276 133.577418001 490 112 c 1
 468.199460038 67.9063802226 444.004908525 22.2923828554 426.111328125 -15.7197265625 c 1
 370.956054688 -3.6396484375 l 1
 393.746885911 76.6358715738 421.778353383 151.17148258 428.1171875 216.030273438 c 0
 436.701396393 305.306640625 438.025479116 377.09485656 385.12109375 408.3203125 c 0
 358.218763952 423.163085938 286.909142848 432.200195312 180.870117188 432.200195312 c 3
 144.228515625 432.200195312 128.159179688 434.2109375 112.883789062 442 c 1
 157.200195312 582.599609375 l 1
 171.981114515 580.559890557 188.302999729 579.346686994 204.302734375 579.240234375 c 0
205.4375 611.16015625 m 1
 128.883789062 412.830225583 215.108398438 259.50445212 205.93359375 150.799804688 c 1
 142.723632812 0 l 1
 100.451649527 0.0527877586549 57.8387682928 -0.173422699974 16.056640625 0.2802734375 c 1
 -1 7.6796875 l 1
 45.2275390625 160.6796875 l 1
 73.0654296875 169.580248894 107.31640625 167.129346849 147 169 c 1
 117.711914062 118.240234375 l 1
 139.73828125 241.275826352 66.8837890646 468.386056069 149.690429688 619.280273438 c 1
 205.4375 611.16015625 l 1
EndSplineSet
EndChar
StartChar: uni1E9F
Encoding: 7839 7839 1325
Width: 506
Flags: HW
LayerCount: 2
Fore
SplineSet
232 369 m 3
 153.875 369 107 299.952380952 107 224 c 0
 107 121 177 25 264 25 c 0
 346 25 394 99 394 178 c 0
 394 297.74611399 306.377358491 369 232 369 c 3
172.500866655 399.043705812 m 1
 103.49266457 424.875865582 49 457.814098098 49 534 c 0
 49 575.014218009 96.7835920316 658.613860946 160 704 c 0
 199 732 236 756 295 756 c 0
 341.355140187 756 413.785046729 738 450 702 c 1
 449 675 450 675 401 638 c 1
 344.666666667 665 299.888888889 701 245 701 c 0
 143.177966102 701 102 589.833358441 102 551 c 0
 102 462.428229982 247.169545836 431.9680234 317.40625 403.919921875 c 0
 410.155384473 366.881778201 472 289.054221278 472 202 c 0
 472 75 378 -14 255 -14 c 0
 130 -14 31 68 31 191 c 0
 31 303.384182315 100.174311277 370.164559418 172.500866655 399.043705812 c 1
EndSplineSet
EndChar
StartChar: uni1EFD
Encoding: 7933 7933 1486
Width: 414
Flags: HW
LayerCount: 2
Fore
SplineSet
243.512695312 423 m 1
 243.512695312 423 250.391601562 408.198446685 253.703125 403.591796875 c 1
 172 362 112.91796875 289.657078999 112.91796875 190.092773438 c 3
 112.91796875 109.816638771 150.40625 20.7978515625 233.837890625 20.7978515625 c 3
 276.34375 20.7978515625 307.875976562 64.2162176915 307.875976562 113.831054688 c 3
 307.875976562 186.959510006 272.176570995 239.249023438 226.6171875 239.249023438 c 3
 222.502929688 239.249023438 220.004882812 238.723632812 217 238 c 1
 209 252 l 1
 215.377375232 268.674485521 231.265492568 280.345703125 250.805664062 280.345703125 c 3
 317.290039062 280.345703125 382 214.451171875 382 139.948242188 c 3
 382 58.5546875 290.5859375 -10 204.965820312 -10 c 3
 90.609375 -10 35 89.0224609375 35 158.150390625 c 3
 35 285.209960938 135 384 243.512695312 423 c 1
EndSplineSet
EndChar
StartChar: uni2055
Encoding: 8277 8277 1795
Width: 454
Flags: HW
LayerCount: 2
Fore
SplineSet
324 395 m 1
 345 397 371 364 373 345 c 1
 320 291 310 297 251 244 c 1
 338 251 335 272 412 278 c 1
 419 272 422 261 422 248 c 0
 422 233 418 216 411 208 c 1
 336 207 332 218 253 223 c 1
 320 166 333 183 392 133 c 1
 394 112 361 86 342 84 c 1
 288 137 294 147 241 206 c 1
 248 119 269 122 275 45 c 1
 269 38 258 35 245 35 c 0
 230 35 213 39 205 46 c 1
 204 121 215 125 220 204 c 1
 163 137 180 124 130 65 c 1
 109 63 83 96 81 115 c 1
 134 169 144 163 203 216 c 1
 116 209 119 188 42 182 c 1
 35 188 32 199 32 212 c 0
 32 227 36 244 43 252 c 1
 118 253 122 242 201 237 c 1
 134 294 121 277 62 327 c 1
 60 348 93 374 112 376 c 1
 166 323 160 313 213 254 c 1
 206 341 185 338 179 415 c 1
 185 422 196 425 209 425 c 0
 224 425 241 421 249 414 c 1
 250 339 239 335 234 256 c 1
 291 323 274 336 324 395 c 1
EndSplineSet
EndChar
StartChar: uni207F
Encoding: 8319 8319 1286
Width: 318
Flags: HW
LayerCount: 2
Fore
SplineSet
62 582 m 0
 57 596 54 593 46 593 c 1
 42 593 39 593 34 593 c 1
 31 620 l 1
 58 625 75 625 107 653 c 1
 127 640 l 1
 123 632 122 611 122 598 c 1
 145 619 170 644 200 644 c 3
 240 644 262 623 262 587 c 3
 262 569 262 545 262 526 c 1
 262 502 261 478 263 471 c 0
 264 465 269 463 274 463 c 1
 277 462 287 461 290 460 c 1
 285 429 l 1
 265 433 255 435 234 435 c 1
 218 435 198 432 185 429 c 1
 181 459 l 1
 184 460 190 460 193 461 c 1
 200 463 204 470 207 487 c 1
 208 498 211 521 211 530 c 1
 211 544 209 569 207 575 c 1
 205 588 200 598 182 598 c 3
 159 598 139 587 124 574 c 1
 123 542 119 494 118 480 c 1
 117 464 124 464 134 461 c 1
 137 461 143 460 146 460 c 1
 142 430 l 1
 122 433 109 435 87 435 c 1
 69 435 49 432 31 430 c 1
 28 460 l 1
 33 461 35 461 40 462 c 0
 55 465 60 470 64 485 c 1
 69 497 70 522 70 536 c 1
 70 544 67 575 62 582 c 0
EndSplineSet
EndChar
StartChar: proportional
Encoding: 8733 8733 1523
Width: 606
UnlinkRmOvrlpSave: 1
Flags: HW
LayerCount: 2
Fore
SplineSet
528.635742188 65.2119140625 m 3
 362.631835938 65.2119140625 288.676757812 306.791015625 162.77734375 309.70703125 c 0
 114.3359375 310.829101562 77.0205078125 262.848632812 77.0205078125 207.325195312 c 3
 77.0205078125 151.364257812 116.732421875 105.936523438 168.526367188 105.936523438 c 3
 286.641601562 105.936523438 348.575195312 274.198242188 452 338.114257812 c 0
 483.383789062 357.508789062 509.989257812 362 553 362 c 1
 553 324 l 1
 523.430664062 323.421875 502.598632812 321.171875 480 308.412109375 c 0
 377.916992188 250.772460938 313.416015625 69.3759765625 172.668945312 69.3759765625 c 3
 93.013671875 69.3759765625 42.8671875 137.7734375 42.8671875 217.883789062 c 3
 42.8671875 301.290039062 97.205078125 365.767578125 180.959960938 365.767578125 c 3
 358.004313919 365.767578125 416.984680137 133 553 133 c 1
 553 66 l 1
 546 65 537.969726562 65.2119140625 528.635742188 65.2119140625 c 3
EndSplineSet
EndChar
StartChar: uni26B3
Encoding: 9907 9907 2428
Width: 500
Flags: HW
LayerCount: 2
Fore
SplineSet
81 21 m 1
 101 21 l 1
 115.416912499 7.7395453574 187.624327267 1 251.87890625 1 c 3
 312.133953087 1 373.360476934 7.5961022541 400 21 c 1
 421 21 l 1
 421 -60 l 1
 400 -60.123046875 l 1
 373.201260711 -44.5314045433 311.526996602 -36.97265625 251.443359375 -36.97265625 c 3
 184.151483133 -36.97265625 118.726092129 -45.4640183291 100 -61.888671875 c 1
 81 -62 l 1
 81 21 l 1
301.084405814 129.999999126 m 0
 364.886351034 148.273271022 404.934570312 212.23942317 404.934570312 294.629882812 c 0
 404.934570312 408.692382812 332.6484375 494.240234375 233.625 494.240234375 c 0
 168.183949611 494.240234375 114.349868253 439.512062227 99.8837890625 366 c 0
 95 360 73.0237960416 349 52 349 c 0
 39.9584054212 349 32.4444446138 358.669371719 29.9999991426 364.629510927 c 0
 55.0020080972 471.354074236 152.053950645 536.190429688 259.405273438 536.190429688 c 0
 383.13671875 536.190429688 476.215820312 435.166992188 476.215820312 311.459960938 c 0
 476.215820312 207.608805051 409.801851006 116.478724538 312.500581151 88.0000010823 c 0
 269.442991583 75.3976456576 274.298311612 67.6397578704 274.298311612 17 c 3
 274.298311612 -104.944756329 277.691998055 -142.471056855 293 -180 c 1
 293 -200 l 1
 207 -200 l 1
 207 -180 l 1
 224.231181466 -139.097297086 228.20676119 -115.625529237 228.20676119 17 c 3
 228.20676119 103.919010507 227.876409748 109.032776066 301.084405814 129.999999126 c 0
EndSplineSet
EndChar
StartChar: uni272F
Encoding: 10031 10031 2443
Width: 1036
Flags: HW
LayerCount: 2
Fore
SplineSet
832.459960938 345.42578125 m 25
 518.181640625 242.041992188 l 25
 638.314453125 204.030273438 l 25
 832.459960938 345.42578125 l 25
518.123046875 573.219726562 m 25
 518.181640625 242.041992188 l 25
 592.100585938 345.42578125 l 25
 518.123046875 573.219726562 l 25
204.606445312 345.185546875 m 25
 518.181640625 242.041992188 l 25
 443.333984375 344.455078125 l 25
 204.606445312 345.185546875 l 25
324.131835938 -23.47265625 m 25
 518.181640625 242.041992188 l 25
 398.090820312 204.999023438 l 25
 324.131835938 -23.47265625 l 25
712.173828125 -23.3994140625 m 1
 518.181640625 242.041992188 l 1
 518.203125 117.870117188 l 1
 712.173828125 -23.3994140625 l 1
EndSplineSet
Refer: 347 9733 N 1.27 0 0 1.27 -3 -154 2
EndChar
StartChar: uni2B24
Encoding: 11044 11044 1618
Width: 1070
Flags: HW
LayerCount: 2
Fore
SplineSet
35 260.54296875 m 3
 35 536.330078125 258.684570312 760 535 760 c 3
 811.315429688 760 1035 536.330078125 1035 260.54296875 c 3
 1035 -15.244140625 811.315429688 -240 535 -240 c 3
 258.684570312 -240 35 -15.244140625 35 260.54296875 c 3
EndSplineSet
EndChar
StartChar: uni2C6D
Encoding: 11373 11373 1186
Width: 758
Flags: HW
LayerCount: 2
Fore
SplineSet
645.830078125 57.8427734375 m 0
 651.759765625 35.9013671875 666.823303934 41.3318146476 668.372070312 41.7734375 c 0
 681.668711467 44.9510484276 707.312110258 51.3062702828 718.708984375 54.4833984375 c 1
 733.200195312 24.09765625 l 1
 674.771044617 -1.99446126919 605.318017883 -32 589.883789062 -32 c 3
 578.612304688 -32 562.241270502 -28.9616948167 560.901367188 -4.6826171875 c 0
 559.291015625 24.4969886741 559.291015625 76.5131095179 559.291015625 81.587890625 c 1
 498.268229167 43.6650390625 403.961259367 -13.220703125 293.009765625 -13.220703125 c 3
 147.70703125 -13.220703125 37 121.877929688 37 248.706054688 c 3
 37 482.398978077 238.464183688 679.861328125 477.174804688 679.861328125 c 3
 551.501715586 679.861328125 551.501715586 667.006835938 581.42578125 667.006835938 c 3
 618.458007812 667.006835938 631.338867188 700.751953125 642.610351562 712 c 1
 673.202148438 694.32421875 l 1
 669.982421875 684.682617188 663.428278912 658.01301799 658.711914062 642.90234375 c 0
 649.05078125 611.94921875 639.805194852 577.720052188 634.559570312 446.859375 c 0
 632.94921875 405.819468247 632.94921875 231.811141536 632.94921875 162.864257812 c 3
 632.94921875 128.047523259 637.482442733 88.7312240287 645.830078125 57.8427734375 c 0
557.240234375 127.401367188 m 1
 558.060646379 275.743131283 559.291015625 359.586647532 559.291015625 506.315429688 c 3
 559.291015625 519.681208203 553.721026109 555.196599517 543.189453125 570.916015625 c 0
 518.139648437 608.305330962 450.395507812 621.157226562 398.278320312 621.157226562 c 3
 248.702937551 621.157226562 132.149414062 465.445452346 132.149414062 293.340820312 c 3
 132.149414062 173.097968142 211.9453125 51.5185546875 364.0078125 51.5185546875 c 3
 483.357046775 51.5185546875 538.296622762 105.083289907 557.240234375 127.401367188 c 1
EndSplineSet
Position2: "cpsp-1" dx=0 dy=0 dh=50 dv=100
EndChar
StartChar: a.pcap
Encoding: 57347 57347 643
Width: 549
Flags: HW
AnchorPoint: "Ogonek" 325.008 21.6582 basechar 0
AnchorPoint: "Top" 346.897 537 basechar 0
AnchorPoint: "Bottom" 216.566 -15 basechar 0
LayerCount: 2
Back
SplineSet
360.865292092 68.0184803607 m 2
 366.204849764 69.687386804 373.053975326 69.2411170052 375.544314716 69.8255569263 c 2
 375.385290354 66.4091796875 l 2
 363.644200761 86.3222366609 362.572284947 96.1149784641 355.826174656 112.776927535 c 1
 292.45081812 109.946159888 257.987728537 108.471626703 179.985640982 112.148006109 c 1
 173.763438155 98.7180246764 175.498725932 97.834653429 164.873532554 81.3037528678 c 1
 169.234135167 80.0008538681 174.4558958 78.5008311831 179.835820229 73.1727068575 c 2
 182.864860527 70.7125153532 l 1
 177.393061594 -4.92431878743 l 1
 168.750157278 -2.7978515625 l 2
 148.618293084 2.32579890399 128.81167385 3.7294921875 107.768554688 3.7294921875 c 0
 88.1700254386 3.7294921875 68.2377081 2.35831264886 49.3566172108 0.68359375 c 2
 42.0510094889 0.0417224542728 l 1
 41.2455649973 0.68359375 l 2
 39.1785129462 19.5605204889 37.2939167591 37.2879473096 33.5193803411 58.2392578125 c 2
 32.1640957021 71.7453223656 l 1
 39.6327010254 73.0241029151 l 2
 76.3520427757 77.7670174465 72.2076835509 76.4523967105 77.7219487981 86.5878298328 c 0
 140.979833022 230.584289911 192.317134559 337.24734096 229.385606991 435.707721813 c 0
 240.458758696 465.443040048 241.58041762 470.289031444 249.052978009 496.803710938 c 2
 250.589026856 496.754675937 l 1
 320.311211954 497.363870369 l 1
 321.519095522 497.309570312 l 2
 326.204606257 473.385493747 332.761758272 466.946521043 341.709297776 435.494298796 c 0
 388.950176463 281.27920656 423.197070914 227.744822578 484.014790099 73.9215799404 c 0
 486.815848703 71.5098661032 483.132607153 72.9891094536 513.647116269 71.6330529501 c 2
 519.821133789 70.7944653266 l 1
 520.128560409 57.5096396514 l 2
 521.025455197 39.4365187518 524.262159973 19.992314119 525.706746018 2.65809553063 c 2
 526.377559496 1.45189432638 l 1
 518.263780827 1.41796875 l 2
 488.111398896 1.29188831699 463.295757706 2.712890625 440.481445312 2.712890625 c 0
 419.66759915 2.712890625 401.353554063 1.42742087039 378.410390089 -5.0556640625 c 2
 371.030174602 -7.07005308129 l 1
 369.162489246 -5.0556640625 l 2
 369.134104715 -4.93817108074 354.96279907 53.6701448968 354.479689366 55.9756569233 c 2
 360.865292092 68.0184803607 l 2
204.416400225 178.980667798 m 1
 239.690497035 178.5427298 304.426098238 183.149740797 335.964975129 184.056701975 c 1
 321.00030764 232.76553184 292.307011518 293.09154071 275.714509943 344.380191136 c 1
 255.301073119 291.632290355 223.578928931 227.461521219 204.416400225 178.980667798 c 1
EndSplineSet
Fore
SplineSet
190.140625 190 m 1
 219.352539062 191 297.203125 195 324.203125 195 c 1
 319.40625 243 302.647460938 310 299.0625 359 c 1
 273.072265625 312 219.342773438 238 190.140625 190 c 1
315.053710938 -8 m 1
 315.053710938 -8 315.745117188 47 315.658203125 56 c 1
 328.5078125 60 335.4453125 55 333.420898438 69 c 0
 331.309570312 92 331.435546875 102 329.32421875 125 c 1
 266.32421875 125 232.32421875 125 152.111328125 124 c 1
 138.797851562 99 132.609375 84 126.483398438 74 c 0
 121.783203125 66 125.358398438 64 136.295898438 59 c 1
 121.266601562 -7 l 1
 99.3291015625 -2 76.7548828125 0 53.7548828125 0 c 3
 31.7548828125 0 0.2666015625 -7 -20.9462890625 -8 c 1
 -19.6943359375 12 -11.59375 36 -12.7041015625 59 c 1
 27.5703125 65 29.5703125 65 39.7587890625 80 c 0
 135.642578125 230 211.086914062 345 271.979492188 448 c 0
 289.14453125 477 292.418945312 483 304.946289062 509 c 1
 376.946289062 509 l 1
 377.631835938 484 379.14453125 477 382.979492188 448 c 0
 404.395507812 290 413.4296875 229 445.696289062 75 c 0
 449.5078125 60 451.5078125 60 481.5078125 60 c 1
 478.043945312 39 476.368164062 17 473.329101562 -2 c 1
 440.329101562 -2 413.754882812 0 387.754882812 0 c 3
 377.754882812 0 342.329101562 -2 315.053710938 -8 c 1
EndSplineSet
EndChar
StartChar: d.pcap
Encoding: 57350 57350 646
Width: 595
Flags: HW
AnchorPoint: "Top" 367.004 537 basechar 0
AnchorPoint: "Bottom" 247.673 -15 basechar 0
LayerCount: 2
Back
SplineSet
107.84454725 420.837813049 m 1
 90.5676967882 417.62368421 70.1623613538 418.168273449 61.9806122122 419.136871715 c 2
 55.0325137524 419.926157847 l 1
 58.4730707422 499.60423487 l 1
 66.3242149263 498.870117188 l 2
 104.531973086 495.279453745 116.102523769 492.395507812 151.323242188 492.395507812 c 0
 211.111038681 492.395507812 241.160711078 502.685546875 300.047851562 502.685546875 c 0
 381.389541561 502.685546875 578.974609375 452.866610063 578.974609375 248.606445312 c 0
 578.974609375 50.6039450224 418.23925763 -0.2412109375 284.470703125 -0.2412109375 c 0
 235.589582905 -0.2412109375 210.250111376 4.904296875 157.5 4.904296875 c 0
 146.236854293 4.904296875 112.440682034 2.2684895631 70.2117093503 -5.541015625 c 2
 61.9726208252 -7.04686262523 l 1
 56.2866697756 73.4819581435 l 1
 63.7673920691 74.0114011425 l 2
 87.5305415077 75.7022695715 102.436496239 77.4462060731 111.520130319 77.4914284222 c 1
 111.444184 101.126506144 111.415039062 132.293789316 111.415039062 161.783203125 c 0
 111.415039062 264.383557696 109.511985394 364.539478359 107.84454725 420.837813049 c 1
224.805105642 77.3490359929 m 1
 247.023355101 78.6109429735 270.819114962 79.6240234375 300.948242188 79.6240234375 c 0
 404.527544743 79.6240234375 483.958984375 137.367656487 483.958984375 236.654296875 c 0
 483.958984375 353.561023597 422.418877495 419.03125 276.745117188 419.03125 c 0
 244.731523617 419.03125 236.996298357 418.623657067 218.690887641 420.780521335 c 1
 218.643398732 426.69707823 l 2
 216.098980058 399.166825808 215.447265625 360.34106966 215.447265625 325.088867188 c 0
 215.447265625 227.703183339 218.029171211 152.569781593 224.805105642 77.3490359929 c 1
EndSplineSet
Fore
SplineSet
261.676757812 65 m 3
 357.676757812 65 446.493164062 130 470.086914062 241 c 0
 497.293945312 369 453.810546875 442 317.810546875 442 c 3
 291.810546875 442 287.810546875 442 271.810546875 442 c 0
 263.810546875 442 257.748046875 437 256.47265625 431 c 0
 248.733398438 404 240.65625 366 233.4296875 332 c 0
 211.32421875 228 198.532226562 149 187.52734375 69 c 0
 186.676757812 65 191.0390625 62 195.0390625 62 c 0
 214.251953125 63 235.676757812 65 261.676757812 65 c 3
113.4140625 506 m 1
 153.564453125 502 164.926757812 499 203.926757812 499 c 3
 264.926757812 499 297.264648438 510 355.264648438 510 c 3
 437.264648438 510 622.424804688 459 578.637695312 253 c 0
 535.276367188 49 361.010742188 -4 225.010742188 -4 c 3
 177.010742188 -4 158.073242188 1 105.073242188 1 c 3
 92.0732421875 1 54.435546875 -2 6.7353515625 -10 c 1
 16.4013671875 59 l 1
 57.0390625 62 71.251953125 63 72.314453125 68 c 0
 77.62890625 93 84.85546875 127 92.294921875 162 c 0
 116.1015625 274 141.796875 409 146.748046875 437 c 0
 147.598632812 441 134.598632812 441 96.810546875 442 c 1
 113.4140625 506 l 1
EndSplineSet
EndChar
StartChar: t.pcap
Encoding: 57366 57366 662
Width: 532
Flags: HW
AnchorPoint: "Top" 333.091 537 basechar 0
AnchorPoint: "Bottom" 214.76 -15 basechar 0
LayerCount: 2
Back
SplineSet
104.282739961 497.468085687 m 1
 201.856884232 498.388394636 305.175497436 496.197265625 407.026367188 496.197265625 c 0
 424.792969887 496.197265625 442.349415713 496.266741429 459.458147255 496.5546875 c 0
 471.522034731 496.784580329 471.194797275 505.943490788 480.906519649 519.220703125 c 0
 485.187677439 522.895988331 l 1
 542.379368178 485.375417311 l 1
 539.747873136 482.72567657 l 0
 525.549149018 452.080073749 510.087837885 417.936203918 511.614427832 385.069335937 c 0
 512.025152975 368.89767317 l 1
 425.05859375 381.781080424 l 1
 425.05859375 395.670898438 l 0
 425.05859375 398.758582186 430.302064135 414.003373294 433.928911602 426.05639206 c 1
 400.296248876 413.809081608 359.577437379 419.638584302 322.531674306 421.31134036 c 1
 322.106913754 348.339385794 319.124023438 245.451220299 319.124023438 202.09375 c 0
 319.124023438 162.899976284 322.447828777 103.320469166 321.92883582 79.8515625 c 0
 321.903849563 81.2729646933 321.789582552 83.2731221292 321.74635954 83.9192742677 c 1
 332.73339474 85.4314846607 349.908936044 87.0596509725 383.455501801 83.9632066994 c 0
 391.359025068 83.4967949167 l 1
 381.146740094 -6.89120571994 l 1
 372.181473303 -3.5908203125 l 0
 351.01047502 4.51497966949 322.261210669 8.4013671875 292.169921875 8.4013671875 c 0
 245.649486776 8.4013671875 196.414521004 0.378773095275 166.163943981 -12.720703125 c 0
 157.337085493 -16.4366891713 l 1
 142.354446624 79.1676131219 l 1
 151.469275565 78.8201688576 l 0
 176.220334262 77.8936979355 202.514943805 80.1749042569 213.694311886 81.5092665411 c 1
 213.53891279 153.709278606 214.180664062 326.471685112 214.180664062 421.083984375 c 0
 214.180664062 421.526795897 215.325915148 422.09871361 215.904720917 422.382974121 c 1
 188.061916793 421.433498193 151.15138971 421.893667912 122.139239396 422.850941799 c 0
 92.0031448889 423.747559443 106.141955348 434.378856781 79.5993353444 383.682422558 c 0
 76.5777957833 373.52317023 l 1
 -5.8091672971 406.755095614 l 1
 -1.58057635713 417.4609375 l 0
 16.3566427885 449.064971741 38.7970141358 500.126060468 57.7950268339 533.341796875 c 0
 62.2275090346 539.04595728 l 1
 69.0969430049 533.341796875 l 0
 83.7358980111 520.570312618 100.041813299 500.036122529 104.282739961 497.468085687 c 1
EndSplineSet
Fore
SplineSet
155.013671875 499 m 0
 252.2265625 500 355.80078125 498 457.80078125 498 c 3
 475.80078125 498 493.80078125 498 511.013671875 499 c 0
 519.013671875 499 526.989257812 513 535.90234375 522 c 1
 589.462890625 487 l 1
 568.874023438 456 538.8203125 404 533.168945312 368 c 1
 457.357421875 383 l 1
 477.134765625 429 l 1
 442.921875 428 403.921875 428 358.134765625 429 c 1
 342.618164062 356 316.662109375 248 306.883789062 202 c 0
 298.381835938 162 285.840820312 103 282.952148438 80 c 0
 282.676757812 74 306.46484375 73 349.614257812 69 c 1
 324.822265625 -10 l 1
 304.522460938 -2 245.948242188 0 214.948242188 0 c 3
 167.948242188 0 131.672851562 -6 98.1845703125 -13 c 1
 103.827148438 70 l 1
 137.614257812 69 174.46484375 73 174.676757812 74 c 0
 189.34375 143 220.526367188 285 241.782226562 385 c 0
 242.419921875 388 249.859375 423 251.34765625 430 c 1
 225.921875 428 200.134765625 429 167.34765625 430 c 0
 135.559570312 431 138.134765625 429 100.444335938 374 c 1
 30.033203125 405 l 1
 54.8349609375 437 95.80078125 498 121.815429688 531 c 1
 135.051757812 518 148.013671875 499 155.013671875 499 c 0
EndSplineSet
EndChar
StartChar: y.pcap
Encoding: 57371 57371 667
Width: 540
Flags: HW
AnchorPoint: "Top" 351.535 537 basechar 0
AnchorPoint: "Bottom" 237.204 -15 basechar 0
LayerCount: 2
Back
SplineSet
382.35033771 416.90631542 m 1
 377.83568024 417.881665163 372.763983248 419.652763443 368.920794192 423.401499212 c 2
 365.643914092 425.895369411 l 1
 372.542982599 506.604071914 l 1
 381.2846947 504.146484375 l 2
 395.623885334 499.97465233 416.813227272 495.841796875 439.4140625 495.841796875 c 0
 455.557190773 495.841796875 473.018258638 500.863443987 486.15435909 506.506835937 c 2
 494.940625848 510.085412409 l 1
 509.079877309 418.380547739 l 1
 499.978870869 418.737083027 l 2
 490.469305393 419.156219358 483.264139621 419.255997445 480.334983227 418.958533856 c 0
 479.666650752 419.686971203 479.88792766 419.445794288 479.219595186 420.174231635 c 0
 427.535363898 363.902239592 372.156841174 272.762751675 338.855349373 195.104715029 c 1
 338.464327161 169.470953853 336.865518098 145.381165272 340.658152955 84.8559035212 c 1
 352.407089633 82.3959625772 382.819569306 78.7251857977 404.383542672 76.9734177417 c 2
 412.145125481 76.3317670624 l 1
 402.524304764 -3.36256304704 l 1
 395.185404546 -2.59765625 l 2
 356.720288724 1.43363054824 320.854627356 4.7373046875 285.374023438 4.7373046875 c 0
 252.703057885 4.7373046875 220.377730463 1.4427220979 185.928235095 -7.5625 c 2
 178.437973737 -9.48306915548 l 1
 159.876515822 73.5402382571 l 1
 168.337161425 74.3522824049 l 2
 201.339510996 77.4711017675 225.980759591 82.1699242813 234.972561393 84.1902687912 c 1
 234.45206639 103.492851836 233.560402105 165.263553639 234.09241589 178.205241248 c 1
 209.082435326 213.328160025 145.129109978 323.03891235 69.7857783147 413.894078684 c 0
 63.5181153441 415.734814356 51.9747966068 419.425245635 42.5619986081 427.325810228 c 2
 39.2997700857 429.803819804 l 1
 45.2522536636 503.827089475 l 1
 53.1438416115 502.720703125 l 2
 75.8460887944 499.506088233 103.495967286 495.377929688 128.41796875 495.377929688 c 0
 153.131259472 495.377929688 175.953303499 497.33245171 190.804798563 502.185546875 c 2
 199.461715711 504.874169543 l 1
 209.274063953 417.891361428 l 1
 200.48775559 418.295108639 l 2
 191.929442221 418.352851279 189.256424421 418.134813062 189.21018649 418.130998338 c 0
 189.377903637 416.571891177 188.686588131 416.465794891 188.686588131 416.465794891 c 1
 218.159350303 356.223322258 260.86284467 300.377271003 288.831775672 262.203866374 c 1
 309.403933777 297.134380033 358.59067819 379.581641658 382.35033771 416.90631542 c 1
EndSplineSet
Fore
SplineSet
247.4296875 433 m 1
 232.216796875 432 226.791992188 430 225.366210938 428 c 0
 223.94140625 426 223.516601562 424 223.303710938 423 c 1
 239.849609375 355 276.221679688 305 295.932617188 266 c 1
 319.521484375 297 422.028320312 417 424.87890625 421 c 1
 427.516601562 424 430.791992188 430 430.00390625 431 c 0
 428.216796875 432 421.791992188 430 405.641601562 434 c 1
 426.30859375 503 l 1
 440.458007812 499 469.245117188 498 492.245117188 498 c 3
 510.245117188 498 542.670898438 500 557.946289062 506 c 1
 548.854492188 435 l 1
 530.641601562 434 523.216796875 432 519.579101562 429 c 1
 454.038085938 370 378.483398438 278 327.265625 197 c 1
 321.52734375 170 313.362304688 141 302.271484375 70 c 0
 301.845703125 68 343.5703125 62 371.145507812 60 c 1
 348.69140625 -8 l 1
 310.541992188 -4 268.392578125 0 232.392578125 0 c 3
 199.392578125 0 158.966796875 -2 122.053710938 -11 c 1
 121.5078125 57 l 1
 170.5703125 62 200.05859375 69 198.05859375 69 c 1
 198.909179688 73 218.801757812 176 220.65234375 180 c 1
 204.666992188 213 161.41015625 320 103.241210938 418 c 1
 100.87890625 421 90.728515625 425 71.5791015625 429 c 1
 92.9462890625 506 l 1
 115.30859375 503 152.245117188 498 178.245117188 498 c 3
 203.245117188 498 237.670898438 500 254.733398438 505 c 1
 247.4296875 433 l 1
EndSplineSet
EndChar
StartChar: question.pcap
Encoding: 57474 57474 1745
Width: 330
Flags: HW
LayerCount: 2
Fore
SplineSet
77.357421875 411.5 m 1
 83.072265625 427.099609375 87.078125 440.299804688 89.62890625 452.299804688 c 0
 100.596679688 503.900390625 86.93359375 524.30078125 88.9736328125 533.900390625 c 0
 90.2490234375 539.900390625 104.21484375 543.5 148.979492188 547.099609375 c 1
 156.603515625 508.700195312 161.866210938 508.700195312 184.41796875 508.700195312 c 3
 274.41796875 508.700195312 353.450195312 457.100585938 336.616210938 377.900390625 c 0
 308.948242188 247.733398438 227.1796875 239.666992188 215.83203125 235.900390625 c 0
 190.7734375 227.583007812 175.919921875 213.838867188 167.872070312 188.099609375 c 1
 167.872070312 188.099609375 127.461914062 186.900390625 112.017578125 186.900390625 c 1
 113.8984375 214.146484375 115.642578125 239.651367188 120.237304688 261.270507812 c 0
 126.834960938 292.309570312 140.770507812 312.3515625 171.452148438 323.5 c 0
 191.153320312 330.658203125 266.9453125 315.467773438 277.919921875 367.099609375 c 0
 284.029296875 395.842773438 221.421875 412.30859375 118.53125 412.30859375 c 0
 105.439453125 412.30859375 91.6953125 412.041992188 77.357421875 411.5 c 1
EndSplineSet
Refer: 48 46 N 1 0 4.3833e-07 1 -6.40056 0 2
EndChar
StartChar: uni0292.pcap
Encoding: 57494 57494 1796
Width: 426
Flags: HW
AnchorPoint: "Bottom" 210 -15 basechar 0
AnchorPoint: "Top" 232 465 basechar 0
LayerCount: 2
Fore
SplineSet
260 256 m 1
 316 254 383 220 383 139 c 3
 383 77 342 -10 198 -10 c 3
 169 -10 137 -5 112 7 c 0
 101 12 101 11 95 -6 c 1
 70 -4 l 1
 70 38 70 49 60 113 c 1
 85 116 l 1
 96 81 99 69 112 56 c 0
 134 34 179 16 212 16 c 3
 282 16 311 79 311 128 c 3
 311 173 256 245 138 196 c 1
 132 212 l 1
 155 230 174 256 190 277 c 0
 214 309 237 341 260 373 c 0
 263 375 l 1
 171 375 l 2
 135 375 109 361 85 306 c 1
 62 317 l 1
 96 395 89 422 108 429 c 1
 120 413 141 407 148 406 c 0
 160 405 296 404 337 405 c 0
 344 405 349 406 352 406 c 1
 359 393 l 1
 348 379 l 0
 260 256 l 1
EndSplineSet
EndChar
StartChar: theta.pcap
Encoding: 57530 57530 1835
Width: 591
Flags: HW
LayerCount: 2
Fore
SplineSet
396.81640625 295.5 m 1
 392.50390625 278.114257812 383.022460938 232.83984375 381.056640625 214.299804688 c 1
 333.428710938 213.700195312 l 1
 328.124023438 214.25390625 324.188476562 213.9296875 310.056640625 214.299804688 c 0
 306.778320312 214.385742188 296.625 214.900390625 287.68359375 214.900390625 c 3
 276.380859375 214.900390625 260.775390625 215.299804688 256.768554688 215.299804688 c 0
 242.833007812 215.299804688 241.801757812 215.299804688 240.768554688 215.299804688 c 1
 191.938476562 216.099609375 l 1
 199.932617188 238.473632812 207.944335938 274.254882812 209.071289062 296.700195312 c 1
 257.486328125 296.299804688 l 1
 259.484375 296.028320312 272.502929688 295.700195312 275.858398438 295.700195312 c 0
 279.124023438 295.700195312 291.360351562 295.700195312 301.858398438 295.700195312 c 3
 312.66015625 295.700195312 321.168945312 295.650390625 323.358398438 295.700195312 c 0
 341.551757812 295.75390625 346.08984375 295.717773438 348.486328125 296.299804688 c 1
 396.81640625 295.5 l 1
EndSplineSet
Refer: 657 57361 N 1 0 0 1 0 0 2
EndChar
StartChar: sigma.pcap
Encoding: 57534 57534 1839
Width: 468
Flags: HW
AnchorPoint: "Bottom" 229 -15 basechar 0
AnchorPoint: "Top" 232 537 basechar 0
LayerCount: 2
Fore
SplineSet
68.953125 -5.4892578125 m 1
 63 16.05859375 l 1
 85.4136403116 28.15234375 103.75701195 49.5058947592 118.74609375 66.734375 c 0
 156.3046875 109.904296875 194.21484375 153.653320312 231.857421875 197.625 c 1
 194.8984375 243.841593889 153.657487653 299.406337208 115.751953125 342.708007812 c 0
 99.4812895936 361.294921875 82.427528623 379.5625 64.9296875 383.420898438 c 1
 67.90625 404.272460938 l 1
 111.492579752 402.173809562 163.220644241 401.375335797 212.124051748 401.375335797 c 0
 297.413684376 401.375335797 374.111600045 403.804041523 384.04296875 406 c 1
 390.714427895 397.2080716 393.220603968 392.904411471 393.220603968 386.992454559 c 0
 393.220603968 376.315884718 385.047019601 360.394053147 378.471679688 303.319335938 c 1
 357.612304688 300.591796875 l 1
 354.549845537 316.492667104 359.400969724 349.688844596 332 363 c 0
 312.004549444 372.71361789 285.297154946 375.725286498 257.556230254 375.725286498 c 0
 231.815923892 375.725286498 205.185784085 373.132344879 182.202148438 370.89453125 c 1
 219.393554688 325.806640625 256.264310261 280.641061523 293.58984375 235.630859375 c 0
 300.828125 226.90234375 310.985351562 216.051757812 320.736328125 211.4453125 c 1
 320.736328125 195.321289062 l 1
 310.895507812 190.807617188 302.766859679 183.28567976 297.495117188 176.89453125 c 0
 255.473742518 125.950304256 214.517412995 80.3966004207 173 32 c 1
 193.576310064 32 214.364359896 30 235 30 c 0
 259.565297415 30 292.148970877 31.676438115 335.037109375 52.3349609375 c 0
 360.3122649 64.5095946602 374.197569628 84.6193072606 396.331054688 119.861328125 c 1
 416 114.830078125 l 1
 405.654083613 68.6701457428 398.541133511 39.2963980778 390.782226562 -4.064453125 c 1
 318.134627953 -2.17858914227 251.985030644 -0.434544100505 195.072936201 -0.434544100505 c 0
 145.383658142 -0.434544100505 102.735971515 -1.76399999379 68.953125 -5.4892578125 c 1
EndSplineSet
EndChar
StartChar: phi.pcap
Encoding: 57536 57536 1841
Width: 518
UnlinkRmOvrlpSave: 1
Flags: HW
LayerCount: 2
Fore
SplineSet
263.331054688 346.5546875 m 3
 200.967773438 346.5546875 149.131835938 314.5859375 138.618164062 265.124023438 c 0
 124.037109375 196.524414062 167.51171875 143.78515625 251.858398438 143.78515625 c 3
 319.370117188 143.78515625 364.415039062 180.596679688 375.108398438 230.904296875 c 0
 391.551757812 308.262695312 340.313476562 346.5546875 263.331054688 346.5546875 c 3
299.938476562 414 m 3
 418.795898438 414 494.447265625 336.994140625 475.599609375 248.321289062 c 0
 455.526367188 153.885742188 352.095703125 77 223.856445312 77 c 3
 87.25 77 21.029296875 160.956054688 37.048828125 236.321289062 c 0
 58.3212890625 336.3984375 178.790039062 414 299.938476562 414 c 3
EndSplineSet
Refer: 651 57355 N 0.909091 0 0 1 83.455 0 2
EndChar
StartChar: c.smcp
Encoding: 57673 57673 2025
Width: 590
Flags: HW
LayerCount: 2
Fore
SplineSet
30.3583007813 258.4 m 0
 62.5609375 409.9 197.888378906 563.4 394.088378906 563.4 c 3
 450.888378906 563.4 471.975292969 554.4 518.118359375 541.9 c 0
 543.251660157 535 545.091992187 536.6 561.481542969 546.9 c 1
 608.480273438 522.9 l 1
 584.994238281 485.8 583.55390625 476.2 574.860546875 422.6 c 0
 569.208496094 386.6 546.85703125 379.3 501.344433594 378.3 c 1
 494.024511719 410.2 495.214355469 441.2 489.146582031 447 c 0
 456.103515625 480.2 428.881738281 492.8 380.581738281 492.8 c 3
 265.881738281 492.8 171.791113281 409.1 141.629199218 267.2 c 0
 110.915039062 122.7 211.02890625 56.9 299.72890625 56.9 c 3
 388.12890625 56.9 443.471289062 98.5 484.137695312 175.5 c 1
 542.064453125 160.1 l 1
 529.512109375 116.1 506.103515625 83.6 486.398828125 45 c 1
 423.101171875 14.9 366.430957031 -14.6 288.730957031 -14.6 c 3
 98.8309570311 -14.6 -4.35166015625 95.1 30.3583007813 258.4 c 0
EndSplineSet
EndChar
StartChar: g.smcp
Encoding: 57677 57677 2029
Width: 618
Flags: HW
LayerCount: 2
Fore
SplineSet
26.59765625 266.1 m 0
 59.9479492187 423 215.29296875 562 401.19296875 562 c 1
 446.29296875 562 474.323535156 544.882714843 504.420214844 533.9 c 0
 519.930273437 528.3 514.907128906 545.6 518.891308594 550.7 c 1
 582.502832031 556.4 l 1
 596.904980468 435.5 l 1
 529.268554688 415.1 l 1
 520.085546875 426 489.099511719 492.4 382.999511719 492.4 c 3
 266.299511719 492.4 172.647070313 415 146.375 291.4 c 1
 113.66328125 137.5 201.011035156 60.1 336.811035156 60.1 c 1
 364.56796875 60.1 392.237988281 72.1 403.256054688 79.6 c 0
 404.616503906 80.6477539063 406.899609375 83.1 407.154785156 84.3 c 0
 414.110058594 117.022265625 424.672558594 159.187109375 436.045019531 214.1 c 0
 437.171191406 219.4 431.135058594 219.7 415.198925781 220 c 0
 392.5625 220.3 377.284082031 220.4 352.008886718 222.4 c 1
 371.280859375 296.6 l 1
 455.476464844 286.7 535.954296875 291.3 590.969335937 298.9 c 1
 581.560839844 229.7 l 1
 559.181738281 229.8 547.375097656 228.298632812 545.180175781 218.5 c 0
 531.466601562 160.1 523.84375 128.941015625 515.032714843 88.9 c 0
 513.948828125 83.8 519.482324219 84.9 534.50078125 78.4 c 1
 518.448144531 26.4 l 1
 447.218652344 14.5 354.934765625 -11.3 295.634765625 -11.3 c 1
 122.234765625 -11.3 -9.70673828125 95.3 26.59765625 266.1 c 0
EndSplineSet
EndChar
StartChar: h.smcp
Encoding: 57678 57678 2030
Width: 714
Flags: HW
LayerCount: 2
Fore
SplineSet
124.556347656 562.4 m 1
 158.604492187 555.1 192.990722657 550.8 229.290722657 550.8 c 3
 258.390722657 550.8 288.192285156 554.1 321.467675781 560.1 c 1
 312.03515625 492.2 l 1
 297.93359375 488.9 273.220996094 487.9 268.242285156 488 c 1
 261.052636719 457 241.871289063 388.4 226.331152344 316.7 c 1
 248.582128906 316 503.482128906 316 521.682128906 316 c 1
 533.733105469 369.4 549.665332031 458 553.749511719 483.8 c 0
 553.971289063 491.9 540.019628906 492.6 516.674804688 493.8 c 1
 534.597070313 559.3 l 1
 562.38359375 555 584.38203125 551.7 607.48203125 551.7 c 3
 637.88203125 551.7 669.831933593 555.7 715.787988282 564.9 c 1
 716.101855468 499.1 l 1
 702.259960937 494.2 669.238671875 494.1 668.21640625 490.7 c 0
 645.336132813 404.7 622.223925781 300.2 600.437402343 197.7 c 0
 588.236132813 140.3 579.5875 98.2 576.467675782 80.7 c 0
 575.896386719 76.6 599.301660156 73.8 626.401660156 73.8 c 1
 626.401660156 73.8 602.141699219 -7.4 602.673242188 -4.9 c 1
 566.489648438 -2 533.514453125 0 499.414453125 0 c 3
 475.714453125 0 450.738671875 -1.3 423.609667969 -5.2 c 1
 425.668261719 18.6 427.99921875 41.8 430.738183593 68.8 c 1
 454.065917968 69.4 468.510351562 72.9 470.808007812 82.3 c 0
 488.670507813 149.4 495.579199219 189.9 508.482714843 253.9 c 1
 488.033691407 253.2 244.721777344 252.2 214.770117188 252.9 c 1
 201.485351562 190.4 184.858886719 123 178.082910156 80.3 c 0
 175.704589844 67.7 209.542382813 70.7 221.414941407 70.1 c 1
 221.414941407 70.1 198.365234375 -8.7 198.896777343 -6.2 c 1
 163.274804687 -1.6 134.314453125 0 105.314453125 0 c 3
 72.914453125 0 40.3896484375 -2 4.6732421875 -4.9 c 1
 4.6732421875 -4.9 8.5681640625 60 9.2294921875 69.7 c 1
 31.0811523437 69 68.97734375 75.1 69.5512695312 77.8 c 0
 93.3446289062 172.8 113.944042969 276.3 135.178320313 376.2 c 0
 147.059960937 432.1 155.601953125 478.4 155.020898437 487.9 c 0
 154.568652344 493.3 135.017675781 494 105.145410156 494.6 c 1
 124.556347656 562.4 l 1
EndSplineSet
EndChar
StartChar: j.smcp
Encoding: 57680 57680 2032
Width: 343
Flags: HW
LayerCount: 2
Fore
SplineSet
189.611132812 483.4 m 0
 188.776367188 487 149.704101562 487.6 100.612109375 491.4 c 1
 122.556445313 565 l 1
 164.263964844 556.1 215.750488281 551.8 242.650488281 551.8 c 3
 289.950488281 551.8 330.540722656 557.4 387.656445313 565 c 1
 376.522753906 489.1 l 1
 356.599902344 488.05 299.701269531 488.497265625 298.338867188 484 c 0
 273.358203125 395.171777343 256.648730468 314.207714843 230.332226562 190.4 c 1
 210.543164063 97.3 208.8078125 64.2 199.687011719 30.7 c 1
 182.597851563 -49.7 112.219335938 -101.573535157 48.4172851563 -143.7 c 0
 29.7029296875 -156 12.2220703125 -167.2 -4.8564453125 -179.8 c 1
 -35.3690429688 -118.7 l 1
 -12.7672851563 -107.4 7.323828125 -98.912890625 24.5395507812 -86.2 c 0
 31.2020507813 -81.2 38.134765625 -77.0155273437 44.5909179687 -70.9 c 0
 68.7100585938 -48.7 88.3216796877 -14.3 108.538183594 71.4 c 1
 114.487890625 96.1 189.745898437 479.8 189.611132812 483.4 c 0
EndSplineSet
EndChar
StartChar: p.smcp
Encoding: 57686 57686 2038
Width: 557
Flags: HW
LayerCount: 2
Fore
SplineSet
246.011230468 233.1 m 1
 347.311230468 233.1 419.983105469 294.6 434.734375 364 c 1
 445.043261719 412.5 417.01328125 454.7 384.022070312 474.5 c 0
 370.528808593 483 338.431933594 489.6 323.04453125 490.6 c 1
 292.756738281 491.6 252.030273438 486.3 251.456445312 483.6 c 0
 241.363476563 430 223.807617188 330 204.040234375 237 c 1
 216.611230468 233.1 231.011230468 233.1 246.011230468 233.1 c 1
120.430859375 556.4 m 1
 147.480273437 552.4 155.503808594 551.1 191.603808594 551.1 c 1
 254.003808594 551.1 277.495996093 560 337.195996093 560 c 1
 474.895996093 560 557.962304688 476.1 534.899511719 367.6 c 1
 518.490332031 290.4 430.606152344 165.8 223.406152344 165.8 c 1
 215.706152344 165.8 196.324902344 167.3 191.352636719 167.9 c 1
 184.723144531 135.3 176.820214843 87.3 176.22734375 75.1 c 0
 175.759082031 64.9 218.0578125 69.6 241.694042969 61.3 c 1
 220.621191406 -8.2 l 1
 184.654101562 -2.4 157.864355469 0 129.864355469 0 c 3
 100.764355469 0 62.0298828125 -1.1 13.9706054687 -12.2 c 1
 15.8399414063 55.4 l 1
 48.9692382812 67.3 61.6610351563 63.5 63.6170898438 72.7 c 0
 67.0405273438 92.1 70.5685546875 108.7 76.4354492187 136.3 c 0
 104.663183594 269.1 139.520214844 442.5 145.4203125 483.9 c 0
 145.888085937 486.1 139.021582032 487.2 100.721582031 487.2 c 1
 120.430859375 556.4 l 1
EndSplineSet
EndChar
StartChar: q.smcp
Encoding: 57687 57687 2039
Width: 651
Flags: HW
LayerCount: 2
Fore
SplineSet
362.2109375 491.6 m 3
 275.1109375 491.6 178.345117187 409.9 154.241308594 296.5 c 0
 119.976855469 135.3 221.504003906 65.8 313.804003906 65.8 c 3
 403.804003906 65.8 499.71015625 149.1 523.89921875 262.9 c 0
 557.483300782 420.9 469.9109375 491.6 362.2109375 491.6 c 3
424.908105468 26.3 m 1
 455.790917969 -42 542.224414063 -82.3 612.024414062 -82.3 c 3
 657.924414062 -82.3 700.381054687 -77.8 748.442285157 -55.4 c 1
 758.86640625 -110.8 l 1
 733.917089843 -127.5 656.493261718 -154.9 576.593261718 -154.9 c 3
 458.993261718 -154.9 370.280859375 -98.5 303.367089844 -12 c 1
 98.9670898439 -12 9.42294921875 108.7 45.2811523438 277.4 c 0
 80.0341796875 440.9 231.324902344 566 394.124902344 566 c 3
 557.224902344 566 664.6734375 447.2 631.514355469 291.2 c 0
 606.092871093 171.6 521.96640625 62.8 424.908105468 26.3 c 1
EndSplineSet
EndChar
StartChar: r.smcp
Encoding: 57688 57688 2040
Width: 620
Flags: HW
LayerCount: 2
Fore
SplineSet
215.609082031 291.4 m 1
 231.552734375 286.9 251.727636719 284.9 271.327636719 284.9 c 3
 344.327636719 284.9 393.839746093 327.3 407.847363282 393.2 c 0
 420.473046875 452.6 375.932226563 497.1 329.732226563 497.1 c 3
 291.232226563 497.1 258.637207031 491.276757813 256.965234375 482.2 c 0
 254.714648437 470.2 227.787597656 345.4 215.609082031 291.4 c 1
121.4078125 552.5 m 1
 156.495214844 551.5 182.982324219 550.5 212.582324219 550.5 c 3
 258.582324219 550.5 281.13125 563.9 335.73125 563.9 c 3
 436.23125 563.9 532.092089844 503.5 510.496875 401.9 c 0
 493.76875 323.2 426.088671875 265.9 380.661132812 244.6 c 1
 443.949804687 86 491.839550781 54.9 578.752832032 51.2 c 1
 545.944726562 -22.7 l 1
 405.841699218 -16.6 316.874121093 113.4 280.575097656 220.2 c 1
 269.3625 219.2 262.198632813 218.9 249.998632813 218.9 c 3
 228.798632812 218.9 216.272460938 221.6 200.836328125 221.9 c 1
 189.723730468 171.5 174.231054688 105.2 167.237988281 72.3 c 0
 166.259863282 67.7 185.637695312 64.3 219.522460938 64.7 c 1
 192.638476562 -10.5 l 1
 167.717382813 -2.6 134.0703125 0 105.4703125 0 c 3
 78.4703125 0 44.3173828125 -2.6 14.70234375 -10.2 c 1
 18.0224609375 64.7 l 1
 56.6049804688 66.5 67.3595703125 72.4 67.8291992188 73.2 c 1
 89.4543945313 158 101.401074218 209.5 114.345214844 270.4 c 0
 128.884667969 338.8 138.937304688 390.8 156.023632813 477.3 c 1
 156.826269532 483.9 146.609082031 485.7 107.484863281 487 c 1
 121.4078125 552.5 l 1
EndSplineSet
EndChar
StartChar: ohorn.smcp
Encoding: 57791 57791 2143
Width: 659
UnlinkRmOvrlpSave: 1
Flags: HW
AnchorPoint: "Bottom" 336 -15 basechar 0
AnchorPoint: "Top" 334 580 basechar 0
LayerCount: 2
Fore
SplineSet
561.352539062 555.779296875 m 3
 561.352539062 572.45703125 551.208984375 588.2421875 531.252929688 607.299804688 c 1
 552.10546875 638.7890625 582.0625 656.685546875 610.860351562 656.685546875 c 3
 656.514648437 656.685546875 682.86328125 620.359375 682.86328125 579.801757812 c 3
 682.86328125 509.032004742 598.417918151 459 531 459 c 3
 510.491210937 459 494.912109374 461.371902799 482.352539062 465.779296875 c 1
 474.051757813 474.959630147 450.077148438 519.973711094 446.232421875 537.643554688 c 1
 470.116210938 524.57421875 501.959960938 512.303710938 525.892578125 512.303710938 c 3
 541.089193611 512.303710938 561.352539062 527.506139487 561.352539062 555.779296875 c 3
EndSplineSet
Refer: 2037 57685 N 1 0 0 1 0 0 2
EndChar
StartChar: lambda.smcp
Encoding: 57855 57855 2207
Width: 541
Flags: HW
LayerCount: 2
Fore
SplineSet
258 360.2 m 1
 215.688150781 254.003270313 157.825252344 130.50320625 134.4 61.8 c 0
 127.436891406 41.1450346875 150.5507 20.6 202.3 25.6 c 1
 201 -7.9 l 1
 177.386139731 -3.0680151692 135.783785628 -0.523665376076 97.3587253357 -0.523665376076 c 0
 70.5644478448 -0.523665376076 45.3213879617 -1.75647243732 28.9 -4.3 c 1
 28.9 -2.9 25.6 15.1 24.6 25.6 c 1
 60.3 33.3 81.294921875 46.5888671875 86.2 56.9 c 0
 153 202.9 210.290527344 333.666113281 258.4 452.4 c 0
 269.2 479.2 265.5 476.7 268.8 504.1 c 1
 303.4 504.1 l 1
 307.7 482 303.818359375 480.945605469 313.2 453.7 c 0
 365.5 295.9 399 197 473 44.5 c 0
 480.522460938 28.855078125 501.6 24.9 517 24.3 c 1
 517 22.9 516.7 5.9 515.7 -3.3 c 1
 494.182565243 -0.254256599327 466.75884155 1.50729709018 439.086507906 1.50729709018 c 0
 404.063276593 1.50729709018 368.619835808 -1.31095882042 344.5 -7.9 c 1
 344.5 -7.9 339.9 11.3 337.3 20.7 c 1
 364.377375 27.2 384.937650781 39.8950734375 380.1 53.6 c 0
 341.984583594 163.796005469 301.761133594 262.634222656 258 360.2 c 1
EndSplineSet
EndChar
StartChar: phi.smcp
Encoding: 57860 57860 2212
Width: 576
UnlinkRmOvrlpSave: 1
Flags: HW
LayerCount: 2
Fore
SplineSet
269.99609375 382.28828125 m 3
 192.74161567 382.28828125 134.213085938 336.636159211 134.213085938 269.286816406 c 3
 134.213085938 180.926533235 206.692091686 107.349609375 306.534960937 107.349609375 c 3
 390.393000324 107.349609375 440.44765625 159.508936145 440.44765625 224.333007812 c 3
 440.44765625 320.943476133 364.983528666 382.28828125 269.99609375 382.28828125 c 3
294.886132813 415 m 3
 423.767773438 415 525.3 334.979199219 525.3 240.724902344 c 3
 525.3 149.210576156 428.984960937 74.6 292.0703125 74.6 c 3
 149.54609375 74.6 51.5 156.316548239 51.5 240.724902344 c 3
 51.5 336.579199219 163.2328125 415 294.886132813 415 c 3
EndSplineSet
Refer: 2031 57679 N 0.932061 0 0 1 133.498 0 2
EndChar
StartChar: Breve
Encoding: 58023 58023 162
Width: 321
Flags: HW
AnchorPoint: "Top" 162 699 mark 0
LayerCount: 2
Fore
SplineSet
1.7646484375 816.463867188 m 1
 37.185546875 864.797851562 l 1
 54.7912104023 838.823523682 107.350641429 812.28125 160.081054688 812.28125 c 3
 212.670288783 812.28125 265.42969093 838.750273903 283.814453125 864.797851562 c 1
 319.235351562 816.463867188 l 1
 296.146876196 771.119524493 227.933317297 733.447265625 159.9296875 733.447265625 c 3
 91.8748763968 733.447265625 24.0301523934 771.119524493 1.7646484375 816.463867188 c 1
EndSplineSet
EndChar
StartChar: Uni030B
Encoding: 58027 58027 166
Width: 300
Flags: HW
AnchorPoint: "Top" 87 699 mark 0
LayerCount: 2
Fore
SplineSet
-37 736.060546875 m 1
 -31.2415837549 774.085019884 -7.03239276758 838.203317581 20.2939453125 879 c 1
 20.2939453125 879 70.0625 862.108190988 112.333984375 837.057617188 c 1
 73.7558106361 804.051636663 38.0751517954 759.103831323 13.4853515625 712.127929688 c 1
 -37 736.060546875 l 1
148.754882812 736.733398438 m 1
 156.466502339 773.169037144 188.887234356 834.608182632 225.482421875 873.700195312 c 1
 225.482421875 873.700195312 271.863510613 853.044512584 311.2578125 822.412109375 c 1
 266.221803174 792.455740271 224.568341424 751.660919884 195.862304688 709.025390625 c 1
 148.754882812 736.733398438 l 1
EndSplineSet
EndChar
StartChar: cedillafloating
Encoding: 58084 58084 269
Width: 0
Flags: HW
AnchorPoint: "Bottom" -193 -15 mark 0
LayerCount: 2
Back
SplineSet
-283 -172 m 1
 -278.965820312 -121.80859375 l 1
 -243.574404884 -125.244627242 -209.825195312 -125.382709688 -209.825195312 -103.997070312 c 3
 -209.825195312 -92.6079730485 -216.150321394 -86.1115385651 -221.4609375 -82.1259765625 c 1
 -252.948242188 -59.4599609375 l 1
 -250.535248801 -57.698392598 -248.042839695 -55.045495327 -245.346679688 -52.0732421875 c 0
 -229.045341594 -34.1026086957 -221.092316902 -26.9686956522 -201 -2 c 1
 -141 6 l 1
 -141 6 -165.584014487 -42.1562847527 -168.897460938 -50.92578125 c 1
 -151.354332095 -59.8466796875 -133.397460938 -72.059792339 -133.397460938 -103.42578125 c 3
 -133.397460938 -156.707176565 -216.974575919 -185.889577706 -283 -172 c 1
EndSplineSet
Fore
SplineSet
-283 -172 m 1
 -279 -122 l 1
 -221 -128 -210 -116.51670075 -210 -104 c 3
 -210 -93.0645138612 -216 -87 -221 -83 c 1
 -252 -59 l 1
 -224 -29 -133 -41 -133 -102 c 3
 -133 -156.389105831 -216.798259388 -186.25225583 -283 -172 c 1
EndSplineSet
EndChar
StartChar: Eng.alt
Encoding: 58128 58128 1968
Width: 644
Flags: HW
AnchorPoint: "Top" 376 699 basechar 0
LayerCount: 2
Fore
SplineSet
472 -189 m 0
 433 -216 396 -241 337 -241 c 3
 305 -241 255 -230 230 -208 c 1
 231.224489796 -178.046875 230 -178.046875 290 -137 c 1
 329 -155 352.349151158 -179 398 -179 c 3
 430.844834062 -179 454.83488091 -169.009507851 472.325428578 -152.000001538 c 0
 501.877861918 -123.260346783 512.875354622 -74.4826263989 516.67882769 -20.0000030978 c 0
 520.065805052 28.5165522951 517.748046875 81.5569989285 517.748046875 129 c 3
 517.748046875 262.322736529 516.444941261 418.337634996 514.400390625 474.25 c 0
 510.45703125 557.28515625 482.892578125 616.5 398.799804688 616.5 c 3
 315.755859375 616.5 243.092773438 591.5 186 554 c 1
 186.35546875 394.240234375 187.599609375 171.71875 187.599609375 103.25 c 3
 187.599609375 31.212890625 219.473632812 38.583984375 277 26 c 1
 277 26 273 3 272 -11 c 1
 220.392393862 -2.39873231031 175.431590595 2.44564680006 132.612272285 2.44564680006 c 3
 95.7794837565 2.44564680006 60.5312407821 -1.1388469203 24 -9 c 1
 24 -9 19 15 17 33 c 1
 74.3115234375 42.5517578125 103.879626051 52.6318416483 105.200195312 112 c 0
 106.524414062 171.532226562 106 286.786132812 106 348.25 c 3
 106 383.25 101.497214487 503.950207231 98.599609375 539 c 0
 94.0888671875 593.5625 73.6376953125 597 64.400390625 597 c 3
 52.6728515625 597 30 588 12.2001953125 586.25 c 1
 4 622 l 1
 50.0712890625 631.827148438 98.142578125 647.166015625 158.400390625 695 c 1
 169.73501623 692.225454124 175.466794585 685.750398119 178.695350016 676.0000023 c 0
 185.180868524 656.413418178 186.200195312 617.967124914 186.200195312 592.5 c 1
 259.465820312 640.010742188 338.837890625 698.25 435 698.25 c 3
 535.096679688 698.25 596.799804688 628.25 596.799804688 504 c 3
 596.799804688 425.760144292 595.857421875 274.53035286 595.857421875 156 c 3
 595.857421875 38.8947195443 595.126004381 -30.1617295323 570.632804953 -84 c 0
 552.977241109 -122.80852823 522.974969982 -153.709636166 472 -189 c 0
EndSplineSet
Substitution2: "c2sc-1" eng.altsmcp
Substitution2: "c2pc-1" eng
EndChar
StartChar: two.smaller
Encoding: 58360 58360 2448
Width: 319
Flags: HW
LayerCount: 2
Fore
SplineSet
63.251953125 212.2265625 m 1
 95.5673828125 247.806640625 136.887695312 276.796875 190.2578125 276.796875 c 3
 249.481445312 276.796875 285.936523438 236.090820312 275.284179688 185.977539062 c 0
 264.149414062 133.58984375 150.6796875 78.3349609375 143.666015625 69 c 1
 143.889648438 66.796875 214.924804688 68.7333984375 215.609375 70.578125 c 1
 237.486328125 71.1259765625 251.803710938 85.583984375 263.731445312 94.00390625 c 1
 296.565429688 54.560546875 l 1
 296.565429688 54.560546875 245.150390625 14.37890625 237.975585938 -9.556640625 c 1
 218.197265625 1.251953125 177.979492188 1.3125 130.415039062 1.3125 c 1
 81.6064453125 1.3125 36.083984375 0.2646484375 31.9345703125 -0.41796875 c 1
 27.447265625 55.921875 l 1
 51.5068359375 75.232421875 179.265625 137.682617188 188.897460938 183 c 0
 193.888671875 206.48046875 174.62109375 212 161.061523438 212 c 3
 137.65625 212 119.036132812 197.879882812 104.259765625 180 c 1
 63.251953125 212.2265625 l 1
EndSplineSet
EndChar
StartChar: three.smaller
Encoding: 58361 58361 2449
Width: 285
Flags: HW
LayerCount: 2
Fore
SplineSet
46.0771484375 38 m 1
 140.657226562 48.150390625 170.817382812 79.1181640625 174.405273438 96 c 0
 176.694335938 106.76953125 167.14453125 112.922851562 159.65625 116 c 1
 156.798828125 116 143.098632812 108 133.956054688 108 c 1
 126.583984375 158 l 1
 148.76171875 162.666992188 180.693359375 177.333007812 185.936523438 202 c 0
 187.690429688 210.25 175.966796875 213 168.274414062 213 c 3
 140.30859375 213 124.739257812 201.154296875 108.598632812 191 c 1
 95.013671875 240 l 1
 112.729492188 258.868164062 169.10546875 280 196.515625 280 c 3
 244.62109375 280 277.989257812 254 270.336914062 218 c 0
 263.043945312 183.6875 244.645507812 165.625 231.37109375 157 c 1
 246.439453125 147.517578125 266.325195312 128.553710938 259.830078125 98 c 0
 242.826171875 18 92.46875 -15 46.8115234375 -15 c 1
 46.0771484375 38 l 1
EndSplineSet
EndChar
StartChar: two.tabulartext
Encoding: 58370 58370 674
Width: 533
Flags: HW
LayerCount: 2
Fore
SplineSet
140.52734375 386.836914062 m 1
 186.73828125 431.685546875 273.782226562 515.731445312 370.296875 515.731445312 c 1
 476.260742188 515.731445312 506.618164062 426.194335938 492.02734375 357.551757812 c 0
 462.69921875 219.575195312 219.72265625 117.96484375 188.788085938 77.86328125 c 1
 313.919921875 87.6884765625 386.400390625 75.6181640625 399.717773438 82.6318359375 c 1
 435.266601562 94.91796875 459.0625 122.212890625 477.588867188 138.950195312 c 1
 526.98046875 94 l 1
 526.98046875 94 486.671875 61.8212890625 459.653320312 -11.912109375 c 1
 445.908203125 -1.2373046875 297.470703125 0.9921875 266.309570312 0.9921875 c 1
 200.80078125 0.9921875 101.779296875 3.7666015625 77.3828125 -6.544921875 c 1
 64.32421875 57.76171875 l 1
 143.543945312 127.662109375 371.908203125 238.240234375 394.529296875 344.666015625 c 0
 407.330078125 404.887695312 369.060546875 425.686523438 330.145507812 425.686523438 c 1
 288.673828125 425.686523438 220.748046875 386.952148438 170.017578125 342.372070312 c 1
 140.52734375 386.836914062 l 1
EndSplineSet
Substitution2: "pnum-1" two
Substitution2: "lnum-1" two.tabularlining
Substitution2: "numr-1" two.numerator
Substitution2: "dnom-1" two.denom
EndChar
StartChar: four.tabulartext
Encoding: 58372 58372 676
Width: 533
Flags: HW
LayerCount: 2
Back
SplineSet
270.951171875 74.9599609375 m 1
 270.951171875 168.237847 270.957335754 245.468151204 270.930664062 308.5234375 c 1
 270.930664062 308.5234375 187.917934999 165.364292579 133.889648438 73.408203125 c 1
 173.878377682 74.9599609375 238.869113658 74.9599609375 270.951171875 74.9599609375 c 1
383.108398438 478.17578125 m 1
 356.591749679 422.303406595 352.939690606 332.809190385 351.897460938 180.267578125 c 0
 351.553206263 129.882174037 352.624277934 135.641433589 353.193359375 77.39453125 c 1
 404.966387899 76.643521162 395.461750714 81.417390444 427.87890625 116.48046875 c 1
 427.87890625 116.48046875 469.503169428 99.833466249 473.077148438 97.841796875 c 1
 473.077148438 97.841796875 450.727086522 33.839543882 437.060546875 -8.634765625 c 1
 413.823801085 -0.279416755388 378.177736594 1.98720714851 353.193359375 2.1435546875 c 1
 352.48037571 -66.1352969953 361.699325412 -126.825820557 376.4140625 -149.715820312 c 1
 328.388439432 -157.103068244 333.391025799 -200.095169761 303 -221.099609375 c 1
 303 -221.099609375 234.115168684 -186.959655092 231.409179688 -182.801757812 c 1
 268.622869434 -133.83504627 271.669975905 -76.3050249373 271.952148438 1.044921875 c 1
 37.1222582588 1.044921875 88.8430339795 9.94457029 53.1083984375 -34.75390625 c 1
 53.1083984375 -34.75390625 -5.5537779643 4.04517047 -9.494140625 7.71484375 c 1
 7.09098200684 27.7309900948 293.635812993 445.819032518 317 514 c 1
 383.108398438 478.17578125 l 1
EndSplineSet
Fore
SplineSet
343.884765625 74.9599609375 m 1
 364.663085938 172.716796875 384.729492188 261.440429688 393.547851562 327.5234375 c 1
 393.547851562 327.5234375 247.923828125 169.75 154.493164062 73.408203125 c 1
 209.983398438 74.9599609375 299.630859375 74.9599609375 343.884765625 74.9599609375 c 1
532.959960938 479.17578125 m 1
 501.698242188 432.868164062 481.044921875 350.6953125 453.567382812 224.267578125 c 0
 437.932617188 152.33203125 440.750976562 160.5546875 423.64453125 77.39453125 c 1
 478.723632812 76.6435546875 469.59765625 81.4169921875 511.637695312 116.48046875 c 1
 511.637695312 116.48046875 549.723632812 99.8330078125 552.874023438 97.841796875 c 1
 552.874023438 97.841796875 518.161132812 33.83984375 496.225585938 -8.634765625 c 1
 472.825195312 -0.279296875 434.685546875 1.9873046875 407.649414062 2.1435546875 c 1
 396.627929688 -46.3525390625 396.684570312 -89.4580078125 407.943359375 -105.715820312 c 1
 358.34765625 -113.103515625 354.211914062 -156.094726562 319.356445312 -177.099609375 c 1
 319.356445312 -177.099609375 257.728515625 -142.959960938 255.90625 -138.801757812 c 1
 301.037109375 -101.5546875 313.385742188 -57.79296875 326.173828125 1.044921875 c 1
 39.837890625 1.044921875 104.794921875 9.9443359375 51.7216796875 -34.75390625 c 1
 51.7216796875 -34.75390625 1.3056640625 4.044921875 -1.8544921875 7.71484375 c 1
 21.3203125 27.455078125 438.568359375 447.77734375 479.59765625 515.017578125 c 1
 532.959960938 479.17578125 l 1
EndSplineSet
Substitution2: "pnum-1" four
Substitution2: "lnum-1" four.tabularlining
Substitution2: "numr-1" four.numerator
Substitution2: "dnom-1" four.denom
EndChar
StartChar: seven.small
Encoding: 58458 58458 2463
Width: 327
Flags: HW
LayerCount: 2
Fore
SplineSet
191.638671875 345.901367188 m 1
 188.784179688 335.747070312 206.049804688 334.948242188 213.016601562 334.776367188 c 0
 266.966796875 333.45703125 344.232421875 335.424804688 352.533203125 339.046875 c 1
 352.533203125 339.046875 367.151367188 291.87109375 367.662109375 291.177734375 c 1
 346.662109375 274.921875 169.653320312 26.88671875 162.831054688 -1.3212890625 c 1
 162.831054688 -1.3212890625 95.1962890625 0.34765625 66.494140625 -0.47265625 c 1
 135.625 82.462890625 186.689453125 143.126953125 260.587890625 238.2578125 c 0
 264.772460938 243.48046875 261.514648438 251.002929688 255.732421875 252.356445312 c 0
 238.98046875 254.841796875 232.208007812 256.483398438 213.29296875 256.319335938 c 1
 150.928710938 255.985351562 144.241210938 253.16796875 124.8125 225.022460938 c 1
 124.8125 225.022460938 86.1337890625 238.1875 77.451171875 239.626953125 c 1
 77.451171875 239.626953125 131.567382812 327.155273438 141.661132812 351.420898438 c 1
 191.638671875 345.901367188 l 1
EndSplineSet
EndChar
